<?xml version="1.0" encoding="utf-8"?>
<!-- Generator: Adobe Illustrator 27.5.0, SVG Export Plug-In . SVG Version: 6.00 Build 0)  -->
<svg version="1.1" id="Capa_1" xmlns="http://www.w3.org/2000/svg" xmlns:xlink="http://www.w3.org/1999/xlink" x="0px" y="0px"
	 viewBox="0 0 2122 2122" style="enable-background:new 0 0 2122 2122;" xml:space="preserve">
<path style="fill:#9A284C;" d="M1561.179,1803.137c148.815-4.09,260.437-9.47,281.943-12.521
	c-19.694,2.779-145.052,4.707-277.642,8.347C1563.945,1800.516,1562.506,1801.908,1561.179,1803.137z"/>
<path style="fill:#9A284C;" d="M1930.679,1580.893c0.019-0.002,0.039-0.004,0.057-0.006c-4.385-30.638-14.13-64.987-31.449-103.432
	c-46.926-104.17-79.796-202.371-111.071-283.608l1.82,6.399c-37.251,10.587-77.436,16.378-116.248,19.229
	c41.351,137.211,130.531,287.716,130.531,287.716h-98.268c-26.861-34.536-79.324-172.963-109.905-285.425
	c-53.88-0.568-97.228-5.156-113.841-7.171c3.974,14.845,7.962,30.078,12.035,45.64c23.772,90.841,50.716,193.803,93.646,293.459
	c3.905,9.066,7.291,17.856,10.242,26.395c64.738,18.218,132.148,25.328,199.703,21.584c45.324-2.512,89.135-11.391,132.618-21.833
	C1930.601,1580.197,1930.632,1580.539,1930.679,1580.893z"/>
<path style="fill:#9A284C;" d="M1612.949,979.838c-12.84-0.963-26.247-1.642-39.971-2.163
	c18.873,14.327,61.239,23.776,83.938,170.058c2.921,18.825,7.432,38.587,13.085,58.754c38.861-2.719,79.035-8.358,115.846-18.778
	C1739.214,1067.59,1695.444,986.022,1612.949,979.838z"/>
<path style="fill:#9A284C;" d="M1514.257,1204.609c20.276,1.748,47.502,3.492,78.364,3.925
	c-8.866-33.963-15.502-65.003-18.458-89.247c-12.389-101.582-84.072-139.487-90.065-142.489
	c-38.302,0.525-78.574,1.996-120.029,3.974c56.086,29.271,85.459,113.273,114.524,220.062c0.236,0.031,0.463,0.061,0.748,0.098
	c1.678,0.219,4.169,0.532,7.393,0.908C1493.184,1202.594,1502.568,1203.601,1514.257,1204.609z"/>
<path style="fill:#282033;" d="M1827.744,1261.893c-61.468-166.684-105.879-287.116-213.808-295.207
	c-29.596-2.219-62.408-3.297-100.313-3.297c-2.844,0-5.787,0.055-8.651,0.067c-1.319-26.431-6.625-62.842-21.318-108.805
	c-33.619-105.165-149.128-303.427-181.884-370.663c-32.632-66.983-92.644-168.151-161.278-160.393
	c-0.861-9.521-3.181-15.45-7.488-19.313c-3.909-3.505-6.732-6.037-56.145-7.844c-26.123-0.955-61.187-1.481-98.732-1.481
	c-44.079,0-148.198,0.684-162.983,7.02l-5.834,2.501l-1.686,6.12c-0.133,0.482-1.983,7.239-4.161,16.954
	c-14.47,2.897-25.781,6.208-32.689,9.893c-51.721,27.584-196.538,327.563-262.051,455.14
	c-26.674,51.944-39.627,118.747-45.614,179.701c-3.093-0.181-6.168-0.363-9.157-0.553c-3.074-0.754-9.918-2.12-19.17-2.12
	c-22.266,0-64.563,8.14-97.666,62.662c-27.831,45.84-45.083,124.549-61.767,200.667c-10.58,48.266-20.574,93.856-32.494,127.628
	l-1.281,3.63c-34.185,96.797-114.24,323.477-29.071,405.899c14.098,13.644,56.63,33.198,262.307,45.427
	c119.235,7.09,281.872,10.838,470.327,10.838c168.694,0,328.965-2.884,442.169-6.26c231.875-3.668,428.407-12.248,457.755-16.44
	l2.363-0.338l2.095-1.144c1.755-0.959,43.326-24.095,71.647-76.895c25.844-48.183,45.114-131.232-9.852-253.249
	C1877.825,1397.702,1851.219,1325.551,1827.744,1261.893z M187.751,1649.988c0.035-3.026,0.112-6.077,0.228-9.152
	c0.043-1.144,0.072-2.279,0.126-3.429c0.191-4.085,0.44-8.203,0.761-12.358c0.069-0.902,0.164-1.818,0.24-2.723
	c0.281-3.351,0.597-6.718,0.956-10.106c0.152-1.445,0.315-2.894,0.481-4.345c0.355-3.086,0.739-6.184,1.152-9.293
	c0.172-1.29,0.33-2.573,0.51-3.866c0.587-4.191,1.218-8.396,1.9-12.615c0.2-1.236,0.421-2.474,0.63-3.711
	c0.526-3.137,1.072-6.276,1.645-9.421c0.302-1.654,0.61-3.306,0.924-4.961c0.554-2.92,1.131-5.839,1.721-8.759
	c0.306-1.508,0.6-3.014,0.914-4.521c0.853-4.088,1.736-8.173,2.651-12.25c0.368-1.641,0.754-3.274,1.132-4.912
	c0.619-2.684,1.242-5.362,1.884-8.034c0.456-1.908,0.92-3.809,1.387-5.71c0.62-2.516,1.252-5.02,1.888-7.521
	c0.456-1.786,0.903-3.576,1.365-5.354c0.992-3.807,1.999-7.594,3.022-11.356c0.558-2.053,1.125-4.08,1.692-6.118
	c0.569-2.051,1.14-4.097,1.716-6.13c0.621-2.194,1.245-4.373,1.873-6.545c0.526-1.823,1.057-3.626,1.588-5.432
	c1.381-4.694,2.767-9.324,4.163-13.892c0.249-0.816,0.498-1.649,0.748-2.461c0,0.001,0,0.001,0,0.001
	c11.072-35.992,22.334-67.651,30.24-90.052c18.28-51.794,32.078-130.501,49.314-201.248c56.265-10.697,360.626,63.87,513.147,78.173
	c162.919,15.277,407.299-38.551,501.688-47.98c94.324-9.422,146.435,10.636,146.506,10.664
	c28.187,103.745,56.929,231.316,109.926,354.344c2.421,5.62,4.614,11.115,6.653,16.522c0.001,0,0.001,0,0.001,0
	c0.022,0.057,0.038,0.111,0.06,0.168c9.062,24.069,14.427,46.019,17.042,65.958c0.038,0.281,0.093,0.576,0.129,0.857
	c0.437,3.426,0.755,6.761,1.034,10.067c0.055,0.646,0.14,1.316,0.189,1.958c0.234,3.08,0.362,6.074,0.465,9.049
	c0.028,0.816,0.087,1.657,0.107,2.465c0.065,2.819,0.041,5.557-0.003,8.281c-0.015,0.906-0.002,1.834-0.028,2.729
	c-0.076,2.62-0.233,5.164-0.406,7.695c-0.063,0.929-0.103,1.879-0.179,2.796c-0.203,2.453-0.472,4.835-0.758,7.202
	c-0.113,0.931-0.208,1.879-0.332,2.796c-0.313,2.292-0.681,4.518-1.066,6.728c-0.162,0.929-0.31,1.871-0.484,2.786
	c-0.408,2.144-0.863,4.227-1.334,6.293c-0.207,0.909-0.407,1.827-0.625,2.721c-0.494,2.012-1.023,3.968-1.57,5.903
	c-0.248,0.878-0.492,1.761-0.75,2.623c-0.566,1.884-1.16,3.718-1.772,5.527c-0.286,0.846-0.569,1.692-0.864,2.521
	c-0.626,1.759-1.273,3.471-1.937,5.157c-0.319,0.812-0.638,1.621-0.966,2.416c-0.675,1.639-1.365,3.235-2.07,4.803
	c-0.347,0.771-0.695,1.536-1.048,2.29c-0.715,1.523-1.437,3.008-2.174,4.462c-0.37,0.731-0.742,1.452-1.117,2.165
	c-0.742,1.411-1.488,2.788-2.246,4.131c-0.386,0.684-0.773,1.355-1.162,2.022c-0.761,1.302-1.521,2.575-2.29,3.81
	c-0.398,0.641-0.795,1.265-1.196,1.888c-0.769,1.196-1.534,2.366-2.302,3.496c-0.403,0.592-0.803,1.161-1.204,1.735
	c-0.766,1.092-1.526,2.163-2.286,3.191c-0.406,0.548-0.805,1.071-1.208,1.6c-0.749,0.985-1.491,1.953-2.228,2.875
	c-0.402,0.503-0.794,0.977-1.191,1.461c-0.725,0.883-1.442,1.753-2.149,2.574c-0.391,0.456-0.768,0.879-1.152,1.315
	c-0.688,0.781-1.369,1.553-2.033,2.273c-0.381,0.415-0.744,0.793-1.117,1.189c-0.637,0.675-1.268,1.347-1.874,1.964
	c-0.364,0.371-0.703,0.702-1.055,1.052c-0.576,0.574-1.15,1.148-1.691,1.667c-0.351,0.335-0.666,0.624-0.999,0.937
	c-0.497,0.464-0.995,0.935-1.452,1.349c-0.326,0.295-0.609,0.54-0.915,0.809c-0.414,0.366-0.837,0.744-1.21,1.063
	c-0.287,0.246-0.52,0.436-0.781,0.654c-0.325,0.272-0.666,0.561-0.947,0.789c-0.262,0.213-0.454,0.362-0.677,0.538
	c-0.209,0.166-0.444,0.356-0.616,0.488c-0.296,0.228-0.503,0.383-0.681,0.515c-0.034,0.025-0.094,0.071-0.124,0.093
	c-0.186,0.138-0.288,0.209-0.288,0.209c-0.138,0.02-0.316,0.04-0.462,0.06c-0.426,0.058-0.857,0.116-1.352,0.175
	c-0.301,0.036-0.652,0.073-0.978,0.109c-0.406,0.045-0.798,0.091-1.242,0.136c-0.355,0.037-0.755,0.074-1.134,0.111
	c-0.471,0.046-0.934,0.092-1.443,0.138c-0.411,0.038-0.859,0.076-1.295,0.114c-0.54,0.047-1.077,0.094-1.653,0.142
	c-0.469,0.038-0.968,0.078-1.461,0.117c-0.594,0.047-1.189,0.094-1.817,0.142c-0.562,0.042-1.151,0.085-1.74,0.128
	c-0.614,0.044-1.232,0.089-1.877,0.134c-0.596,0.042-1.209,0.083-1.831,0.125c-0.736,0.05-1.484,0.1-2.253,0.15
	c-0.619,0.04-1.252,0.08-1.894,0.121c-0.775,0.049-1.564,0.098-2.372,0.147c-0.704,0.043-1.415,0.086-2.144,0.129
	c-0.824,0.049-1.67,0.099-2.525,0.148c-0.746,0.043-1.494,0.086-2.263,0.129c-0.944,0.053-1.916,0.106-2.895,0.16
	c-0.716,0.039-1.426,0.078-2.161,0.117c-1.059,0.057-2.151,0.114-3.247,0.171c-0.732,0.038-1.454,0.076-2.202,0.114
	c-1.215,0.061-2.47,0.124-3.729,0.186c-0.658,0.032-1.299,0.064-1.969,0.097c-1.389,0.067-2.822,0.135-4.262,0.203
	c-0.624,0.029-1.229,0.058-1.861,0.088c-1.465,0.068-2.978,0.137-4.494,0.205c-0.657,0.03-1.29,0.059-1.956,0.089
	c-2.17,0.097-4.385,0.193-6.652,0.29c-0.122,0.005-0.251,0.01-0.374,0.016c-2.2,0.094-4.445,0.189-6.735,0.283
	c-0.289,0.012-0.591,0.024-0.882,0.036c-2.092,0.086-4.212,0.172-6.377,0.258c-0.647,0.026-1.314,0.051-1.967,0.077
	c-1.842,0.073-3.695,0.146-5.588,0.218c-0.783,0.03-1.586,0.06-2.377,0.09c-1.798,0.068-3.604,0.136-5.446,0.204
	c-0.855,0.032-1.726,0.063-2.591,0.095c-1.865,0.068-3.743,0.137-5.65,0.205c-0.891,0.032-1.796,0.064-2.694,0.096
	c-1.8,0.064-3.612,0.128-5.45,0.192c-1.075,0.037-2.162,0.075-3.249,0.112c-1.832,0.063-3.678,0.126-5.546,0.188
	c-0.998,0.034-2,0.067-3.007,0.101c-1.965,0.065-3.949,0.13-5.951,0.195c-1.045,0.034-2.091,0.068-3.147,0.102
	c-2.117,0.068-4.258,0.136-6.414,0.203c-0.814,0.025-1.623,0.051-2.443,0.077c-2.374,0.074-4.777,0.148-7.199,0.221
	c-0.782,0.023-1.559,0.048-2.346,0.071c-2.365,0.071-4.758,0.142-7.164,0.214c-0.929,0.027-1.851,0.054-2.786,0.082
	c-2.434,0.071-4.898,0.142-7.371,0.212c-0.821,0.023-1.631,0.047-2.457,0.07c-3.009,0.085-6.052,0.17-9.12,0.255
	c-0.299,0.008-0.593,0.016-0.893,0.024c-10.454,0.287-21.244,0.568-32.345,0.843c-0.135,0.003-0.271,0.006-0.406,0.01
	c-3.503,0.087-7.038,0.173-10.6,0.258c-0.573,0.014-1.152,0.027-1.725,0.041c-3.12,0.074-6.256,0.148-9.42,0.221
	c-0.894,0.021-1.798,0.041-2.695,0.061c-2.848,0.065-5.704,0.131-8.586,0.195c-1.061,0.024-2.132,0.047-3.198,0.071
	c-2.852,0.063-5.716,0.125-8.601,0.188c-0.894,0.019-1.794,0.038-2.691,0.057c-3.121,0.066-6.257,0.133-9.414,0.198
	c-0.759,0.016-1.52,0.031-2.281,0.047c-3.117,0.064-6.249,0.128-9.399,0.19c-1.093,0.022-2.188,0.043-3.282,0.065
	c-2.741,0.054-5.495,0.108-8.26,0.161c-1.381,0.026-2.762,0.053-4.151,0.079c-2.723,0.051-5.46,0.102-8.207,0.153
	c-1.372,0.025-2.743,0.05-4.122,0.075c-2.768,0.05-5.553,0.1-8.343,0.149c-1.337,0.024-2.668,0.047-4.01,0.07
	c-3.056,0.053-6.13,0.105-9.213,0.157c-1.05,0.018-2.094,0.036-3.148,0.053c-3.235,0.054-6.488,0.106-9.752,0.158
	c-1.047,0.017-2.089,0.033-3.14,0.05c-3.553,0.056-7.125,0.111-10.709,0.165c-0.668,0.01-1.33,0.02-1.998,0.03
	c-13.013,0.195-26.219,0.377-39.593,0.545c-1.068,0.013-2.146,0.026-3.218,0.039c-3.264,0.04-6.534,0.081-9.817,0.12
	c-1.6,0.018-3.211,0.036-4.816,0.055c-2.883,0.034-5.766,0.066-8.662,0.098c-1.601,0.017-3.21,0.034-4.815,0.051
	c-2.858,0.03-5.716,0.061-8.586,0.09c-1.727,0.018-3.461,0.034-5.194,0.051c-2.809,0.028-5.621,0.055-8.442,0.081
	c-1.753,0.017-3.51,0.032-5.268,0.048c-2.734,0.025-5.473,0.049-8.217,0.072c-1.839,0.016-3.681,0.03-5.524,0.045
	c-2.742,0.022-5.487,0.044-8.239,0.065c-1.952,0.015-3.906,0.029-5.864,0.043c-2.572,0.019-5.148,0.037-7.728,0.054
	c-1.937,0.013-3.873,0.026-5.814,0.038c-2.792,0.018-5.59,0.035-8.388,0.052c-1.889,0.01-3.777,0.022-5.669,0.032
	c-2.591,0.015-5.187,0.028-7.783,0.041c-2.094,0.011-4.186,0.021-6.284,0.031c-2.755,0.013-5.515,0.024-8.277,0.036
	c-1.793,0.008-3.583,0.015-5.379,0.022c-3.099,0.011-6.202,0.021-9.308,0.031c-1.594,0.005-3.186,0.011-4.782,0.015
	c-3.609,0.01-7.224,0.018-10.84,0.026c-1.028,0.002-2.052,0.005-3.081,0.007c-3.677,0.007-7.359,0.012-11.044,0.016
	c-1.131,0.001-2.258,0.003-3.389,0.004c-4.582,0.004-9.167,0.007-13.758,0.007c-0.079,0-0.16,0-0.24,0
	c-4.973,0-9.951-0.003-14.933-0.008c-1.868-0.001-3.739-0.006-5.608-0.009c-3.16-0.004-6.318-0.008-9.48-0.015
	c-1.933-0.004-3.867-0.01-5.799-0.016c-3.138-0.007-6.273-0.015-9.41-0.025c-1.955-0.006-3.91-0.015-5.864-0.022
	c-3.116-0.011-6.231-0.023-9.346-0.036c-2.013-0.009-4.028-0.02-6.041-0.029c-2.969-0.014-5.94-0.029-8.91-0.045
	c-2.2-0.012-4.399-0.026-6.601-0.039c-2.817-0.017-5.633-0.034-8.448-0.053c-2.3-0.016-4.6-0.032-6.9-0.049
	c-2.754-0.019-5.507-0.04-8.259-0.062c-2.198-0.017-4.393-0.036-6.591-0.054c-2.884-0.024-5.767-0.049-8.65-0.076
	c-2.161-0.02-4.321-0.041-6.482-0.062c-2.813-0.027-5.626-0.056-8.436-0.085c-2.206-0.022-4.409-0.046-6.612-0.071
	c-2.95-0.032-5.897-0.067-8.842-0.101c-1.98-0.023-3.959-0.047-5.935-0.072c-3.015-0.037-6.026-0.076-9.036-0.116
	c-2.024-0.027-4.049-0.053-6.071-0.081c-3.008-0.041-6.011-0.085-9.013-0.129c-1.975-0.029-3.95-0.057-5.921-0.087
	c-3.162-0.048-6.317-0.099-9.471-0.149c-1.727-0.028-3.455-0.055-5.179-0.084c-3.559-0.059-7.107-0.121-10.654-0.184
	c-1.385-0.025-2.772-0.048-4.155-0.073c-3.711-0.067-7.41-0.138-11.107-0.21c-1.239-0.024-2.482-0.046-3.718-0.07
	c-14.833-0.292-29.542-0.618-44.101-0.979c-0.809-0.02-1.611-0.041-2.418-0.062c-3.971-0.1-7.934-0.201-11.882-0.306
	c-1.339-0.036-2.671-0.073-4.008-0.109c-3.437-0.093-6.872-0.188-10.291-0.284c-1.427-0.04-2.846-0.083-4.272-0.124
	c-3.321-0.096-6.639-0.194-9.943-0.294c-1.536-0.046-3.066-0.095-4.598-0.143c-3.128-0.097-6.252-0.195-9.362-0.296
	c-1.628-0.053-3.25-0.107-4.873-0.161c-3.052-0.101-6.098-0.203-9.13-0.308c-1.583-0.054-3.162-0.11-4.739-0.166
	c-3.082-0.109-6.154-0.219-9.213-0.331c-1.526-0.056-3.049-0.113-4.57-0.17c-3.006-0.113-6.001-0.227-8.987-0.344
	c-1.597-0.062-3.191-0.125-4.782-0.188c-2.941-0.117-5.869-0.236-8.787-0.357c-1.567-0.065-3.133-0.13-4.692-0.196
	c-2.979-0.126-5.942-0.255-8.896-0.385c-1.431-0.063-2.865-0.125-4.29-0.189c-3.084-0.138-6.147-0.28-9.203-0.422
	c-1.316-0.061-2.636-0.122-3.945-0.184c-3.274-0.155-6.525-0.314-9.765-0.475c-1.016-0.05-2.04-0.099-3.052-0.15
	c-3.547-0.179-7.067-0.361-10.572-0.545c-0.746-0.039-1.498-0.077-2.242-0.117c-3.973-0.211-7.917-0.427-11.834-0.646
	c-0.256-0.015-0.518-0.028-0.775-0.043c-12.67-0.712-25.039-1.467-37.078-2.269c-0.644-0.043-1.276-0.087-1.918-0.131
	c-3.329-0.224-6.641-0.449-9.917-0.68c-0.842-0.059-1.669-0.121-2.506-0.18c-3.003-0.214-5.992-0.43-8.948-0.65
	c-1.082-0.08-2.146-0.163-3.222-0.244c-2.698-0.204-5.385-0.409-8.044-0.618c-1.217-0.096-2.418-0.193-3.625-0.29
	c-2.475-0.199-4.941-0.398-7.38-0.601c-1.285-0.107-2.559-0.215-3.834-0.324c-2.334-0.198-4.655-0.398-6.955-0.6
	c-1.312-0.115-2.612-0.232-3.913-0.349c-2.255-0.203-4.495-0.407-6.715-0.614c-1.269-0.118-2.531-0.237-3.788-0.357
	c-2.193-0.208-4.365-0.42-6.523-0.633c-1.259-0.124-2.515-0.249-3.764-0.375c-2.147-0.217-4.272-0.436-6.381-0.657
	c-1.197-0.125-2.395-0.25-3.581-0.377c-2.097-0.224-4.168-0.452-6.229-0.681c-1.163-0.129-2.333-0.258-3.484-0.388
	c-2.109-0.24-4.187-0.483-6.256-0.728c-1.034-0.122-2.078-0.243-3.101-0.366c-2.147-0.259-4.258-0.523-6.359-0.787
	c-0.922-0.116-1.857-0.23-2.771-0.348c-2.2-0.282-4.356-0.569-6.504-0.858c-0.772-0.104-1.561-0.206-2.326-0.31
	c-2.349-0.321-4.65-0.648-6.933-0.976c-0.534-0.076-1.084-0.151-1.614-0.228c-5.634-0.822-11.06-1.666-16.264-2.535
	c-0.366-0.061-0.711-0.123-1.072-0.185c-2.181-0.368-4.336-0.738-6.438-1.115c-0.767-0.137-1.502-0.278-2.258-0.417
	c-1.666-0.305-3.329-0.611-4.943-0.922c-0.869-0.167-1.704-0.338-2.557-0.506c-1.455-0.288-2.908-0.576-4.318-0.869
	c-0.887-0.184-1.744-0.371-2.613-0.557c-1.325-0.283-2.647-0.567-3.929-0.856c-0.878-0.197-1.729-0.397-2.588-0.596
	c-1.215-0.282-2.425-0.566-3.6-0.853c-0.853-0.208-1.682-0.418-2.513-0.628c-1.124-0.284-2.238-0.57-3.323-0.858
	c-0.821-0.218-1.625-0.438-2.423-0.659c-1.037-0.286-2.056-0.575-3.052-0.865c-0.778-0.227-1.545-0.454-2.298-0.684
	c-0.961-0.292-1.901-0.586-2.823-0.882c-0.725-0.233-1.443-0.466-2.144-0.702c-0.886-0.297-1.746-0.598-2.592-0.9
	c-0.673-0.24-1.347-0.48-1.996-0.723c-0.821-0.307-1.608-0.618-2.387-0.93c-0.604-0.241-1.214-0.482-1.794-0.725
	c-0.764-0.321-1.485-0.646-2.205-0.971c-0.537-0.243-1.084-0.484-1.597-0.728c-0.696-0.333-1.346-0.671-1.998-1.008
	c-0.47-0.244-0.958-0.485-1.405-0.731c-0.642-0.353-1.228-0.712-1.821-1.071c-0.389-0.235-0.803-0.467-1.168-0.704
	c-0.619-0.399-1.172-0.805-1.727-1.21c-0.279-0.203-0.59-0.403-0.853-0.607c-0.787-0.612-1.511-1.23-2.157-1.856
	c-2.256-2.183-4.341-4.526-6.344-6.944c-0.591-0.712-1.148-1.452-1.716-2.184c-1.441-1.854-2.814-3.768-4.119-5.745
	c-0.5-0.758-1.016-1.504-1.497-2.281c-1.675-2.699-3.266-5.472-4.712-8.374c-0.087-0.176-0.159-0.365-0.246-0.541
	c-1.355-2.755-2.588-5.614-3.745-8.538c-0.365-0.923-0.706-1.866-1.054-2.805c-0.875-2.372-1.689-4.794-2.447-7.266
	c-0.277-0.911-0.572-1.81-0.835-2.735c-0.948-3.325-1.818-6.713-2.567-10.197c-0.081-0.378-0.14-0.773-0.219-1.153
	c-0.655-3.15-1.225-6.367-1.728-9.635c-0.17-1.096-0.32-2.207-0.473-3.316c-0.381-2.776-0.711-5.59-0.991-8.44
	c-0.101-1.03-0.217-2.047-0.306-3.087c-0.323-3.794-0.577-7.636-0.734-11.545c-0.025-0.609-0.025-1.233-0.046-1.845
	c-0.114-3.36-0.169-6.759-0.17-10.194C187.723,1652.533,187.738,1651.261,187.751,1649.988z M434.78,982.803
	c10.439,0,17.048,2.011,17.048,2.011c3.3,0.213,6.685,0.414,10.085,0.613c-2.744,32.844-3.546,63.473-3.512,88.513
	c-68.508-7.836-113.443-0.803-127.597,2.041c5.402-13.879,11.214-26.371,17.583-36.861
	C377.697,990.846,413.9,982.802,434.78,982.803z M978.125,308.146c71.713,0,141.597,1.941,146.071,5.954
	c9.051,8.118-0.961,85.177-12.598,97.246c0,0-106.471-2.585-161.959-8.387c-7.456-0.78-15.429-1.087-23.642-1.087
	c-30.434,0-64.153,4.213-86.993,4.213c-9.991,0-17.907-0.807-22.545-3.126c-18.102-9.051,3.879-88.859,3.879-88.859
	C829.491,310.177,904.766,308.146,978.125,308.146z M1478.594,1200.834c-29.064-106.788-58.438-190.791-114.524-220.062
	c41.455-1.978,81.727-3.449,120.029-3.974c5.992,3.002,77.676,40.907,90.065,142.489c2.956,24.244,9.592,55.284,18.458,89.247
	c-30.863-0.433-58.089-2.177-78.364-3.925c-11.689-1.008-21.073-2.015-27.522-2.768c-3.224-0.376-5.715-0.69-7.393-0.908
	C1479.056,1200.896,1478.829,1200.866,1478.594,1200.834z M623.402,1106.326c-1.404-31.15-3.047-73.132-3.984-116.221
	c23.816,0.247,48.382,0.363,73.486,0.363c131.471,0,276.732-3.036,396.594-5.422c-6.016,42.817-11.656,83.231-16.344,116.908
	c-85.493,11.69-167.701,23.466-207.561,28.539C802.027,1138.583,705.297,1122.903,623.402,1106.326z M1270.177,1076.938
	c-2.519-27.463-5.482-60.05-8.58-94.642c6.23-0.037,12.252-0.061,17.86-0.061c16.813,0,30.767,0.173,41.275,0.568
	c52.743,1.984,85.19,45.731,111.554,114.178c-18.665-8.307-55.17-22.678-89.141-25.104
	C1331.977,1071.079,1305.471,1073.146,1270.177,1076.938z M1656.916,1147.733c-22.699-146.282-65.065-155.731-83.938-170.058
	c13.723,0.521,27.13,1.2,39.971,2.163c82.496,6.184,126.265,87.753,172.899,207.871c-36.811,10.42-76.985,16.059-115.846,18.778
	C1664.348,1186.32,1659.837,1166.558,1656.916,1147.733z M1071.2,972.219c-118.823,2.371-253.5,5.059-378.296,5.059
	c-1.478,0-2.899-0.005-4.367-0.005c21.459-177.209,95.038-511.251,104.647-543.283c3.04-10.131,7.126-17.828,11.375-23.721
	c1.734,1.832,3.716,3.342,6.001,4.485c6.25,3.125,15.022,4.519,28.443,4.519c11.064,0,24.314-0.93,38.344-1.913
	c16.128-1.131,32.804-2.3,48.649-2.3c8.454,0,15.739,0.332,22.271,1.015c55.376,5.79,158.642,8.349,163.011,8.454l5.793,0.141
	l4.021-4.17c2.356-2.442,4.5-6.152,6.452-10.644c37.044,26.219,17.501,189.977-5.072,344.145
	c-9.309,63.581-20.669,143.551-31.115,217.816C1084.706,971.95,1078.006,972.084,1071.2,972.219z M1561.179,1803.137
	c1.327-1.229,2.766-2.621,4.301-4.174c9.975-10.089,23.766-27.006,34.25-51.457c14.704-34.292,25.242-90.054-1.502-167.418
	c-2.951-8.539-6.337-17.329-10.242-26.395c-42.93-99.656-69.873-202.618-93.646-293.459c-4.073-15.562-8.061-30.794-12.035-45.64
	c16.614,2.015,59.961,6.603,113.841,7.171c30.581,112.463,83.044,250.889,109.905,285.425h98.268c0,0-89.18-150.505-130.531-287.716
	c38.813-2.851,78.997-8.642,116.248-19.229l-1.82-6.399c31.275,81.237,64.145,179.438,111.071,283.608
	c96.75,214.774-40.112,303.635-54.813,312.408c-0.04,0.024-0.073,0.043-0.111,0.066c-0.319,0.19-0.58,0.342-0.77,0.451
	c-0.246,0.142-0.4,0.228-0.4,0.228c-0.021,0.003-0.052,0.006-0.073,0.009C1821.616,1793.667,1709.994,1799.047,1561.179,1803.137z
	 M1363.833,870.167c1.823,35.548-1.173,71.57-4.402,97.636c-12.284,0.595-24.682,1.226-37.197,1.899
	c-0.341-0.016-0.664-0.066-1.006-0.078c-10.329-0.389-23.991-0.578-41.771-0.578c-5.988,0-12.351,0.022-19.039,0.064
	c-8.491-95.203-17.68-202.36-21.323-259.276c-4.174-65.215-10.995-162.412-24.526-241.788c0.001,0.005,0.003,0.009,0.006,0.013
	C1232.969,505.757,1360.385,802.93,1363.833,870.167z"/>
<path style="fill:#852346;" d="M1843.594,1790.38c0.191-0.109,0.444-0.255,0.77-0.451c0.038-0.023,0.071-0.042,0.111-0.066
	c12.143-7.269,106.793-68.822,86.074-210.023c-43.483,10.442-87.295,19.321-132.618,21.833
	c-67.554,3.744-134.965-3.366-199.703-21.584c26.744,77.364,16.206,133.126,1.502,167.418
	c-10.483,24.451-24.275,41.367-34.25,51.457c132.589-3.641,257.947-5.568,277.642-8.347c0.02-0.003,0.052-0.006,0.073-0.009
	C1843.194,1790.607,1843.348,1790.521,1843.594,1790.38z"/>
<path style="fill:#BD3157;" d="M649.026,1631.348c177.06,10.46,352.773,39.114,530.272,42.894
	c87.7,1.868,184.982,4.68,266.287-32.489c39.782-18.187,69.814-45.598,94.056-81.485l0.357,0.152
	c14.011,5.577,28.203,10.551,42.527,15.014c-2.039-5.407-4.232-10.902-6.653-16.522c-52.996-123.028-81.739-250.599-109.926-354.344
	c-0.072-0.028-52.182-20.086-146.506-10.664c-94.389,9.429-338.769,63.257-501.688,47.98
	c-152.521-14.302-456.881-88.87-513.147-78.173c-17.236,70.747-31.034,149.454-49.314,201.248
	c-7.906,22.402-19.168,54.061-30.24,90.052c10.61,17.649,23.122,34.559,37.84,50.548
	C361.184,1612.34,513.782,1623.359,649.026,1631.348z"/>
<path style="fill:#BD3157;" d="M330.805,1075.981c14.154-2.844,59.09-9.877,127.597-2.041c-0.034-25.041,0.767-55.67,3.512-88.513
	c-3.4-0.199-6.786-0.4-10.085-0.613c0,0-6.61-2.011-17.048-2.011c-20.88,0-57.083,8.044-86.392,56.318
	C342.019,1049.611,336.206,1062.102,330.805,1075.981z"/>
<path style="fill:#BD3157;" d="M1343.145,1071.877c33.971,2.426,70.476,16.797,89.141,25.104
	c-26.364-68.447-58.811-112.194-111.554-114.178c-10.508-0.395-24.462-0.568-41.275-0.568c-5.608,0-11.63,0.024-17.86,0.061
	c3.098,34.592,6.061,67.179,8.58,94.642C1305.471,1073.146,1331.977,1071.079,1343.145,1071.877z"/>
<path style="fill:#BD3157;" d="M865.593,1130.493c39.86-5.073,122.068-16.849,207.561-28.539
	c4.687-33.677,10.328-74.091,16.344-116.908c-119.862,2.385-265.123,5.422-396.594,5.422c-25.104,0-49.67-0.116-73.486-0.363
	c0.936,43.089,2.58,85.072,3.984,116.221C705.297,1122.903,802.027,1138.583,865.593,1130.493z"/>
<path style="fill:#A92E55;" d="M187.893,1663.99c0.021,0.611,0.021,1.236,0.046,1.845c0.157,3.909,0.412,7.751,0.734,11.545
	c0.089,1.039,0.204,2.057,0.306,3.087c0.28,2.851,0.61,5.665,0.991,8.44c0.153,1.109,0.303,2.219,0.473,3.316
	c0.503,3.268,1.073,6.485,1.728,9.635c0.079,0.38,0.139,0.775,0.219,1.153c0.749,3.484,1.619,6.872,2.567,10.197
	c0.263,0.924,0.558,1.823,0.835,2.735c0.758,2.472,1.573,4.894,2.447,7.266c0.347,0.939,0.688,1.883,1.054,2.805
	c1.157,2.925,2.391,5.783,3.745,8.538c0.087,0.177,0.159,0.366,0.246,0.541c1.446,2.902,3.037,5.675,4.712,8.374
	c0.481,0.776,0.996,1.522,1.497,2.281c1.306,1.977,2.679,3.891,4.119,5.745c0.568,0.732,1.126,1.472,1.716,2.184
	c2.003,2.418,4.088,4.761,6.344,6.944c0.647,0.626,1.37,1.244,2.157,1.856c0.263,0.204,0.574,0.404,0.853,0.607
	c0.555,0.405,1.108,0.811,1.727,1.21c0.365,0.237,0.779,0.469,1.168,0.704c0.593,0.359,1.179,0.718,1.821,1.071
	c0.447,0.246,0.936,0.488,1.405,0.731c0.652,0.337,1.301,0.675,1.998,1.008c0.511,0.245,1.06,0.486,1.597,0.728
	c0.72,0.325,1.441,0.65,2.205,0.971c0.58,0.244,1.19,0.484,1.794,0.725c0.779,0.311,1.566,0.622,2.387,0.93
	c0.649,0.243,1.323,0.483,1.996,0.723c0.847,0.302,1.707,0.602,2.592,0.9c0.701,0.235,1.419,0.469,2.144,0.702
	c0.922,0.296,1.862,0.59,2.823,0.882c0.754,0.229,1.52,0.457,2.298,0.684c0.996,0.29,2.016,0.579,3.052,0.865
	c0.798,0.22,1.601,0.441,2.423,0.659c1.085,0.288,2.199,0.574,3.323,0.858c0.831,0.21,1.66,0.42,2.513,0.628
	c1.175,0.287,2.385,0.57,3.6,0.853c0.859,0.199,1.71,0.399,2.588,0.596c1.283,0.288,2.604,0.572,3.929,0.856
	c0.869,0.186,1.726,0.373,2.613,0.557c1.41,0.293,2.863,0.581,4.318,0.869c0.853,0.169,1.688,0.34,2.557,0.506
	c1.613,0.311,3.276,0.616,4.943,0.922c0.756,0.139,1.491,0.279,2.258,0.417c2.102,0.376,4.257,0.747,6.438,1.115
	c0.362,0.061,0.706,0.124,1.072,0.185c5.205,0.869,10.631,1.714,16.264,2.535c0.53,0.077,1.08,0.152,1.614,0.228
	c2.283,0.329,4.583,0.656,6.933,0.976c0.765,0.105,1.555,0.207,2.326,0.31c2.148,0.288,4.305,0.576,6.504,0.858
	c0.914,0.117,1.85,0.231,2.771,0.348c2.101,0.265,4.212,0.528,6.359,0.787c1.024,0.123,2.067,0.245,3.101,0.366
	c2.069,0.245,4.146,0.488,6.256,0.728c1.151,0.13,2.32,0.259,3.484,0.388c2.06,0.229,4.131,0.456,6.229,0.681
	c1.186,0.127,2.384,0.252,3.581,0.377c2.109,0.221,4.234,0.441,6.381,0.657c1.249,0.126,2.504,0.25,3.764,0.375
	c2.157,0.213,4.33,0.424,6.523,0.633c1.257,0.12,2.519,0.238,3.788,0.357c2.22,0.207,4.46,0.411,6.715,0.614
	c1.301,0.117,2.602,0.234,3.913,0.349c2.3,0.202,4.621,0.402,6.955,0.6c1.276,0.108,2.548,0.217,3.834,0.324
	c2.44,0.203,4.905,0.402,7.38,0.601c1.207,0.096,2.409,0.194,3.625,0.29c2.659,0.209,5.346,0.414,8.044,0.618
	c1.076,0.081,2.14,0.164,3.222,0.244c2.956,0.22,5.945,0.436,8.948,0.65c0.838,0.059,1.665,0.121,2.506,0.18
	c3.276,0.23,6.589,0.456,9.917,0.68c0.642,0.043,1.274,0.088,1.918,0.131c12.039,0.801,24.408,1.557,37.078,2.269
	c0.257,0.015,0.519,0.028,0.775,0.043c3.917,0.219,7.861,0.435,11.834,0.646c0.743,0.04,1.496,0.077,2.242,0.117
	c3.505,0.184,7.026,0.366,10.572,0.545c1.012,0.05,2.036,0.1,3.052,0.15c3.24,0.161,6.491,0.32,9.765,0.475
	c1.309,0.062,2.63,0.123,3.945,0.184c3.056,0.142,6.119,0.284,9.203,0.422c1.425,0.064,2.859,0.126,4.29,0.189
	c2.955,0.13,5.917,0.259,8.896,0.385c1.559,0.066,3.125,0.131,4.692,0.196c2.918,0.121,5.845,0.24,8.787,0.357
	c1.59,0.063,3.185,0.126,4.782,0.188c2.985,0.116,5.98,0.231,8.987,0.344c1.52,0.057,3.044,0.114,4.57,0.17
	c3.06,0.112,6.132,0.222,9.213,0.331c1.577,0.055,3.155,0.111,4.739,0.166c3.033,0.105,6.078,0.207,9.13,0.308
	c1.623,0.054,3.245,0.108,4.873,0.161c3.11,0.101,6.234,0.199,9.362,0.296c1.532,0.048,3.062,0.096,4.598,0.143
	c3.303,0.1,6.621,0.198,9.943,0.294c1.425,0.041,2.844,0.084,4.272,0.124c3.419,0.097,6.854,0.191,10.291,0.284
	c1.337,0.036,2.669,0.073,4.008,0.109c3.948,0.105,7.911,0.206,11.882,0.306c0.808,0.02,1.61,0.042,2.418,0.062
	c14.559,0.361,29.268,0.687,44.101,0.979c1.236,0.024,2.48,0.047,3.718,0.07c3.697,0.072,7.396,0.142,11.107,0.21
	c1.383,0.025,2.77,0.048,4.155,0.073c3.547,0.063,7.095,0.125,10.654,0.184c1.724,0.029,3.452,0.056,5.179,0.084
	c3.154,0.05,6.309,0.101,9.471,0.149c1.971,0.03,3.946,0.058,5.921,0.087c3.002,0.044,6.005,0.087,9.013,0.129
	c2.022,0.027,4.047,0.054,6.071,0.081c3.01,0.04,6.021,0.078,9.036,0.116c1.977,0.024,3.956,0.048,5.935,0.072
	c2.945,0.034,5.892,0.069,8.842,0.101c2.203,0.024,4.407,0.048,6.612,0.071c2.81,0.029,5.623,0.058,8.436,0.085
	c2.161,0.021,4.322,0.041,6.482,0.062c2.883,0.026,5.766,0.051,8.65,0.076c2.198,0.018,4.393,0.037,6.591,0.054
	c2.752,0.022,5.505,0.043,8.259,0.062c2.299,0.017,4.599,0.034,6.9,0.049c2.815,0.019,5.631,0.036,8.448,0.053
	c2.2,0.013,4.401,0.027,6.601,0.039c2.969,0.016,5.94,0.031,8.91,0.045c2.014,0.01,4.028,0.02,6.041,0.029
	c3.115,0.013,6.23,0.025,9.346,0.036c1.954,0.007,3.909,0.016,5.864,0.022c3.138,0.01,6.273,0.018,9.41,0.025
	c1.933,0.005,3.866,0.011,5.799,0.016c3.162,0.007,6.32,0.011,9.48,0.015c1.869,0.003,3.74,0.008,5.608,0.009
	c4.982,0.005,9.96,0.008,14.933,0.008c4.67,0,9.336-0.002,13.998-0.007c1.13-0.001,2.258-0.003,3.389-0.004
	c3.684-0.005,7.367-0.009,11.044-0.016c1.028-0.002,2.052-0.005,3.081-0.007c3.616-0.008,7.231-0.016,10.84-0.026
	c1.595-0.004,3.188-0.01,4.782-0.015c3.105-0.01,6.209-0.02,9.308-0.031c1.795-0.007,3.586-0.014,5.379-0.022
	c2.761-0.011,5.521-0.023,8.277-0.036c2.097-0.01,4.19-0.02,6.284-0.031c2.597-0.013,5.193-0.026,7.783-0.041
	c1.891-0.01,3.779-0.022,5.669-0.032c2.799-0.017,5.597-0.034,8.388-0.052c1.94-0.013,3.877-0.026,5.814-0.038
	c2.58-0.017,5.156-0.036,7.728-0.054c1.958-0.014,3.911-0.028,5.864-0.043c2.752-0.021,5.497-0.043,8.239-0.065
	c1.843-0.015,3.684-0.03,5.524-0.045c2.744-0.024,5.482-0.047,8.217-0.072c1.758-0.016,3.515-0.031,5.268-0.048
	c2.821-0.026,5.632-0.053,8.442-0.081c1.732-0.017,3.466-0.033,5.194-0.051c2.87-0.029,5.73-0.059,8.586-0.09
	c1.605-0.017,3.214-0.034,4.815-0.051c2.896-0.032,5.78-0.064,8.662-0.098c1.605-0.018,3.215-0.036,4.816-0.055
	c3.284-0.039,6.553-0.079,9.817-0.12c1.072-0.013,2.15-0.025,3.218-0.039c13.374-0.168,26.58-0.35,39.593-0.545
	c0.667-0.01,1.33-0.02,1.998-0.03c3.584-0.054,7.156-0.109,10.709-0.165c1.051-0.017,2.093-0.033,3.14-0.05
	c3.262-0.052,6.518-0.104,9.752-0.158c1.054-0.017,2.097-0.035,3.148-0.053c3.083-0.051,6.157-0.103,9.213-0.157
	c1.343-0.023,2.674-0.046,4.01-0.07c2.79-0.049,5.575-0.099,8.343-0.149c1.379-0.025,2.75-0.05,4.122-0.075
	c2.746-0.05,5.485-0.101,8.207-0.153c1.389-0.026,2.77-0.052,4.151-0.079c2.765-0.053,5.52-0.107,8.26-0.161
	c1.095-0.021,2.19-0.043,3.282-0.065c3.15-0.063,6.284-0.126,9.399-0.19c0.761-0.015,1.523-0.031,2.281-0.047
	c3.157-0.065,6.294-0.131,9.414-0.198c0.897-0.019,1.797-0.038,2.691-0.057c2.886-0.062,5.748-0.125,8.601-0.188
	c1.067-0.023,2.137-0.047,3.198-0.071c2.881-0.064,5.739-0.129,8.586-0.195c0.897-0.021,1.801-0.04,2.695-0.061
	c3.164-0.073,6.301-0.147,9.42-0.221c0.572-0.013,1.152-0.027,1.725-0.041c3.563-0.085,7.097-0.171,10.6-0.258
	c0.134-0.004,0.27-0.007,0.406-0.01c11.1-0.275,21.89-0.556,32.345-0.843c0.299-0.008,0.593-0.016,0.893-0.024
	c3.068-0.084,6.111-0.17,9.12-0.255c0.826-0.023,1.636-0.047,2.457-0.07c2.474-0.07,4.938-0.141,7.371-0.212
	c0.935-0.027,1.857-0.055,2.786-0.082c2.405-0.071,4.802-0.142,7.164-0.214c0.787-0.023,1.564-0.048,2.346-0.071
	c2.422-0.074,4.825-0.148,7.199-0.221c0.82-0.026,1.629-0.052,2.443-0.077c2.157-0.068,4.298-0.135,6.414-0.203
	c1.056-0.034,2.102-0.068,3.147-0.102c2.003-0.065,3.987-0.13,5.951-0.195c1.007-0.033,2.01-0.067,3.007-0.101
	c1.867-0.062,3.712-0.125,5.546-0.188c1.088-0.037,2.174-0.074,3.249-0.112c1.837-0.064,3.649-0.128,5.45-0.192
	c0.899-0.032,1.804-0.064,2.694-0.096c1.908-0.068,3.784-0.137,5.65-0.205c0.865-0.032,1.736-0.063,2.591-0.095
	c1.842-0.068,3.648-0.137,5.446-0.204c0.792-0.031,1.594-0.06,2.377-0.09c1.893-0.072,3.746-0.146,5.588-0.218
	c0.653-0.026,1.321-0.052,1.967-0.077c2.165-0.086,4.285-0.173,6.377-0.258c0.291-0.012,0.593-0.024,0.882-0.036
	c2.291-0.095,4.533-0.189,6.735-0.283c0.123-0.005,0.252-0.01,0.374-0.016c2.267-0.097,4.482-0.194,6.652-0.29
	c0.666-0.03,1.3-0.059,1.956-0.089c1.515-0.068,3.029-0.137,4.494-0.205c0.632-0.029,1.238-0.058,1.861-0.088
	c1.438-0.068,2.873-0.136,4.262-0.203c0.67-0.033,1.311-0.065,1.969-0.097c1.259-0.063,2.514-0.124,3.729-0.186
	c0.748-0.038,1.47-0.076,2.202-0.114c1.097-0.057,2.189-0.114,3.247-0.171c0.734-0.039,1.445-0.078,2.161-0.117
	c0.979-0.053,1.95-0.107,2.895-0.16c0.769-0.043,1.517-0.086,2.263-0.129c0.855-0.049,1.701-0.099,2.525-0.148
	c0.728-0.043,1.44-0.086,2.144-0.129c0.807-0.049,1.598-0.098,2.372-0.147c0.642-0.041,1.275-0.081,1.894-0.121
	c0.77-0.05,1.518-0.1,2.253-0.15c0.621-0.042,1.235-0.083,1.831-0.125c0.645-0.045,1.263-0.09,1.877-0.134
	c0.589-0.043,1.178-0.086,1.74-0.128c0.628-0.047,1.223-0.094,1.817-0.142c0.492-0.039,0.992-0.078,1.461-0.117
	c0.576-0.048,1.113-0.095,1.653-0.142c0.436-0.038,0.884-0.076,1.295-0.114c0.509-0.046,0.971-0.092,1.443-0.138
	c0.379-0.037,0.779-0.074,1.134-0.111c0.444-0.046,0.837-0.091,1.242-0.136c0.325-0.036,0.677-0.073,0.978-0.109
	c0.495-0.059,0.926-0.117,1.352-0.175c0.146-0.02,0.324-0.04,0.462-0.06c0,0,0.102-0.072,0.288-0.209
	c0.029-0.021,0.091-0.069,0.124-0.093c0.178-0.132,0.385-0.287,0.681-0.515c0.169-0.131,0.411-0.325,0.616-0.488
	c0.223-0.176,0.416-0.325,0.677-0.538c0.28-0.227,0.625-0.519,0.947-0.789c0.261-0.218,0.493-0.408,0.781-0.654
	c0.372-0.317,0.798-0.698,1.21-1.063c0.305-0.269,0.588-0.514,0.915-0.809c0.455-0.412,0.957-0.886,1.452-1.349
	c0.333-0.313,0.648-0.602,0.999-0.937c0.538-0.517,1.116-1.095,1.691-1.667c0.352-0.35,0.691-0.681,1.055-1.052
	c0.604-0.616,1.24-1.29,1.874-1.964c0.373-0.396,0.736-0.774,1.117-1.189c0.663-0.719,1.346-1.494,2.033-2.273
	c0.384-0.436,0.761-0.859,1.152-1.315c0.706-0.82,1.425-1.692,2.149-2.574c0.397-0.484,0.789-0.958,1.191-1.461
	c0.734-0.921,1.48-1.891,2.228-2.875c0.403-0.53,0.803-1.052,1.208-1.6c0.758-1.027,1.521-2.1,2.286-3.191
	c0.401-0.573,0.801-1.143,1.204-1.735c0.767-1.129,1.536-2.301,2.302-3.496c0.401-0.623,0.798-1.247,1.196-1.888
	c0.767-1.234,1.531-2.509,2.29-3.81c0.389-0.667,0.776-1.338,1.162-2.022c0.756-1.342,1.504-2.721,2.246-4.131
	c0.375-0.714,0.747-1.434,1.117-2.165c0.736-1.453,1.46-2.94,2.174-4.462c0.353-0.754,0.7-1.519,1.048-2.29
	c0.704-1.567,1.395-3.166,2.07-4.803c0.328-0.795,0.647-1.604,0.966-2.416c0.663-1.685,1.312-3.398,1.937-5.157
	c0.295-0.829,0.577-1.675,0.864-2.521c0.611-1.809,1.207-3.644,1.772-5.527c0.258-0.862,0.502-1.745,0.75-2.623
	c0.547-1.935,1.077-3.892,1.57-5.903c0.218-0.894,0.417-1.812,0.625-2.721c0.471-2.064,0.926-4.149,1.334-6.293
	c0.174-0.915,0.323-1.857,0.484-2.786c0.385-2.209,0.754-4.437,1.066-6.728c0.124-0.917,0.219-1.865,0.332-2.796
	c0.286-2.367,0.555-4.75,0.758-7.202c0.075-0.917,0.116-1.867,0.179-2.796c0.173-2.531,0.329-5.076,0.406-7.695
	c0.026-0.895,0.013-1.823,0.028-2.729c0.042-2.723,0.069-5.463,0.003-8.281c-0.02-0.808-0.079-1.649-0.107-2.465
	c-0.104-2.974-0.232-5.969-0.465-9.049c-0.049-0.642-0.134-1.312-0.189-1.958c-0.279-3.306-0.597-6.641-1.034-10.067
	c-0.036-0.281-0.091-0.575-0.129-0.857c-2.617-19.939-7.98-41.891-17.042-65.958c-0.022-0.057-0.038-0.111-0.06-0.168
	c0,0,0,0-0.001,0c-14.324-4.463-28.516-9.437-42.527-15.014l-0.357-0.152c-24.242,35.887-54.274,63.298-94.056,81.485
	c-81.305,37.168-178.587,34.356-266.287,32.489c-177.499-3.78-353.212-32.434-530.272-42.894
	c-135.243-7.988-287.841-19.007-386.135-125.788c-14.719-15.989-27.23-32.899-37.84-50.548c0,0,0,0,0-0.001
	c-0.25,0.812-0.498,1.645-0.748,2.461c-1.395,4.566-2.783,9.201-4.163,13.892c-0.531,1.806-1.062,3.61-1.588,5.432
	c-0.629,2.17-1.252,4.353-1.873,6.545c-0.576,2.034-1.148,4.079-1.716,6.13c-0.565,2.036-1.134,4.067-1.692,6.118
	c-1.023,3.762-2.031,7.549-3.022,11.356c-0.462,1.777-0.91,3.569-1.365,5.354c-0.636,2.501-1.268,5.005-1.888,7.521
	c-0.467,1.9-0.931,3.804-1.387,5.71c-0.642,2.672-1.266,5.35-1.884,8.034c-0.378,1.637-0.764,3.272-1.132,4.912
	c-0.915,4.077-1.798,8.161-2.651,12.25c-0.314,1.507-0.609,3.014-0.914,4.521c-0.591,2.92-1.167,5.839-1.721,8.759
	c-0.314,1.654-0.622,3.308-0.924,4.961c-0.574,3.145-1.119,6.284-1.645,9.421c-0.208,1.237-0.43,2.477-0.63,3.711
	c-0.682,4.219-1.313,8.424-1.9,12.615c-0.18,1.293-0.339,2.577-0.51,3.866c-0.413,3.109-0.798,6.206-1.152,9.293
	c-0.167,1.451-0.329,2.9-0.481,4.345c-0.359,3.388-0.674,6.755-0.956,10.106c-0.076,0.906-0.171,1.821-0.24,2.723
	c-0.322,4.156-0.57,8.273-0.761,12.358c-0.055,1.15-0.083,2.285-0.126,3.429c-0.116,3.075-0.192,6.126-0.228,9.152
	c-0.015,1.273-0.028,2.545-0.028,3.809C187.724,1657.231,187.779,1660.63,187.893,1663.99z"/>
<path style="fill:#BD3157;" d="M816.458,402.958c4.638,2.319,12.554,3.126,22.545,3.126c22.839,0,56.559-4.213,86.993-4.213
	c8.213,0,16.186,0.307,23.642,1.087c55.488,5.802,161.959,8.387,161.959,8.387c11.637-12.069,21.649-89.128,12.598-97.246
	c-4.474-4.013-74.358-5.954-146.071-5.954c-73.359,0-148.634,2.031-157.788,5.954C820.337,314.1,798.356,393.907,816.458,402.958z"
	/>
</svg>
