<?xml version="1.0" encoding="utf-8"?>
<!-- Generator: Adobe Illustrator 27.5.0, SVG Export Plug-In . SVG Version: 6.00 Build 0)  -->
<svg version="1.1" id="Capa_1" xmlns="http://www.w3.org/2000/svg" xmlns:xlink="http://www.w3.org/1999/xlink" x="0px" y="0px"
	 viewBox="0 0 2122 2122" style="enable-background:new 0 0 2122 2122;" xml:space="preserve">
<path style="fill:#321C27;" d="M1802.154,1259.869c-1.257-16.054-0.942-34.153-8.077-48.951
	c-6.379-13.231-19.05-21.024-32.307-26.138c-32.507-12.538-69.898-15.741-104.491-13.21c-0.599-10.895-1.245-21.788-2.016-32.674
	c-4.631-65.427-12.363-130.861-24.27-195.468c-1.17-6.349-2.276-12.71-3.529-19.043c0.252-10.494,0.303-20.996,0.191-31.497
	c-1.044-97.85-17.902-195.702-51.625-287.613c-34.631-94.385-86.334-187.089-161.438-255.289
	c-39.558-35.922-85.934-64.282-137.56-78.901c-1.019-0.289-1.961-0.341-2.84-0.257c-12.395-38.242-44.865-68.991-83.996-78.736
	c-0.613-0.153-1.197-0.226-1.763-0.242c-6.258-6.173-14.822-10.375-23.523-12.255c-21.319-4.606-43.715-6.377-65.441-7.834
	c-50.655-3.399-101.519-0.673-151.598,7.577c-5.263,0.868-6.353,5.695-4.679,9.556c1.344,3.095,4.459,5.569,8.658,4.877
	c37.576-6.19,75.672-8.993,113.752-8.43c19.368,0.286,38.725,1.441,57.989,3.464c8.967,0.941,17.914,2.07,26.83,3.419
	c7.951,1.203,16.961,2.136,23.777,6.816c5.414,3.718,9.664,10.065,8.958,16.868c-0.917,8.841-8.025,12.636-16.242,12.683
	c-7.927,0.045-15.851-1.737-23.683-2.75c-9.623-1.245-19.283-2.211-28.963-2.897c-37.97-2.691-76.164-1.174-113.948,3.234
	c-10.328,1.205-20.634,2.611-30.909,4.2c-10.29,1.592-20.646,4.099-31.068,4.614c-8.495,0.42-18.046-0.697-24.352-7.047
	c-4.3-4.331-6.566-13.504-0.765-17.788c4.511-3.331,3.766-9.178,0.825-12.278c-2.059-2.169-5.184-3.005-8.379-0.646
	c-4.147,3.063-7.055,7.014-8.777,11.352c-1.954-0.592-4.164-0.374-6.206,0.529c-29.884,13.218-48.375,41.912-61.091,70.903
	c-88.626,17.12-166.275,71.448-222.301,141.077c-64.282,79.89-99.061,178.272-114.746,278.75
	c-8.767,56.163-12.027,112.984-12.228,169.784c-0.009,2.174-0.015,4.347-0.014,6.52c-0.269,1.393-0.521,2.789-0.786,4.182
	c-0.831,4.386-1.693,8.767-2.473,13.161c-0.397,2.237,0.133,4.158,1.164,5.679c1.784,2.629,5.1,4.01,8.004,3.613
	c2.493-0.341,4.672-1.974,5.264-5.312c0.522-2.945,1.101-5.886,1.646-8.831c1.288-1.202,2.141-2.934,2.13-5.232
	c-0.011-2.059,0.009-4.122,0.007-6.182c17.691-90.172,46.9-179.01,95.507-257.246c35.922,29.376,69.045,62.032,98.852,97.609
	c6.193,7.392,16.732-3.243,10.584-10.583c-30.497-36.4-64.452-69.755-101.336-99.652c1.994-3.028,3.939-6.084,5.995-9.077
	c53.794-78.318,129.8-143.933,220.426-175.118c30.965-10.655,63.11-17.815,95.214-24.07c33.017-6.434,66.297-11.382,99.752-14.882
	c4.275-0.447,6.626-3.737,7.059-7.124c0.529-4.125-1.796-8.393-7.059-7.843c-60.016,6.279-120.586,16.052-178.576,33.026
	c-48.458,14.183-93.804,36.9-134.247,67.121c-82.856,61.914-142.024,148.958-180.414,244.221
	c-11.849,29.401-21.73,59.525-30.029,90.09c4.141-79.698,16.33-159.058,44.036-234.14c31.694-85.887,85.876-164.785,161.166-218.055
	c39.535-27.973,84.135-47.972,131.738-57.118c1.647,0.182,3.133-0.183,4.39-0.971c0.403-0.106,0.799-0.218,1.146-0.372
	c2.823-1.247,3.875-3.956,3.546-6.674c10.951-25.453,27.02-50.503,52.469-62.987c0.994,5.501,3.629,10.816,7.897,15.117
	c-10.687,9.166-19.726,20.351-26.278,32.798c-0.969,1.841-1.132,4.045-0.572,6.02c0.493,1.74,1.533,3.308,3.257,4.219
	c0.866,0.457,1.82,0.748,2.792,0.87c1.457,0.83,3.24,1.198,5.306,0.738c85.413-19.01,173.78-23.628,260.729-13.782
	c24.857,2.815,49.547,6.928,74.015,12.123c3.045,0.646,5.512-0.444,7.152-2.266c1.162-0.587,2.102-1.419,2.81-2.41
	c1.241-1.736,1.742-3.957,1.203-6.28c-4.691-20.238-22.38-31.983-39.704-41.092c2.295-3.749,3.754-8.241,4.034-13.529
	c0.104-1.962-0.018-3.84-0.258-5.668c30.716,11.774,55.069,38.187,63.616,70.215c0.91,3.406,3.427,5.02,6.125,5.258
	c1.408,0.124,2.859-0.124,4.165-0.702c0.402,0.19,0.813,0.372,1.282,0.504c90.48,25.622,161.264,94.224,212.069,170.96
	c57.828,87.343,95.219,188.006,113.905,290.814c6.361,34.996,10.401,70.371,12.356,105.866
	c-21.334-83.731-51.885-165.947-97.046-239.89c-43.783-71.689-101.427-134.355-172.474-179.667
	c-68.232-43.516-148.241-70.638-229.664-69.776c-9.872,0.105-19.726,0.652-29.554,1.566c-5.609,0.522-7.914,5.935-6.914,10.113
	c0.696,2.906,2.974,5.221,6.914,4.854c79.726-7.419,159.221,13.342,228.612,52.346c71.645,40.271,131.144,98.575,176.555,166.789
	c0.767,1.152,1.496,2.326,2.255,3.482c-0.407,0.182-0.815,0.38-1.226,0.655c-38.601,25.82-75.557,54.057-110.626,84.499
	c-7.287,6.326,3.336,16.873,10.582,10.583c34.12-29.618,70.044-57.039,107.598-82.159c0.603-0.403,1.089-0.861,1.521-1.34
	c42.042,67.323,71.531,141.838,92.726,218.187c8.47,30.512,15.632,61.38,21.827,92.452c-0.015,0.56-0.01,1.121-0.026,1.68
	c-0.05,1.818,0.445,3.291,1.278,4.422c11.376,58.415,19.108,117.585,24.208,176.78c8.39,97.373,9.421,195.266,6.129,292.905
	c-0.408,12.104-0.887,24.206-1.419,36.306c-0.229,5.209,4.042,7.568,8.082,7.141c3.429-0.363,6.692-2.728,6.885-7.141
	c3.683-83.757,4.431-167.704,0.412-251.456c30.051-2.091,60.251,0.764,89.213,9.219c11.248,3.284,23.875,7.739,31.006,17.666
	c7.795,10.852,7.313,26.498,8.363,39.229c0.39,4.725,0.725,9.453,1.078,14.181c-15.754-0.687-31.508-1.373-47.262-2.06
	c-1.175-0.051-2.352-0.103-3.527-0.154c-4.042-0.176-7.484,3.566-7.484,7.484c0,4.2,3.429,7.307,7.484,7.483
	c1.804,0.078,3.608,0.158,5.412,0.236c15.482,0.675,30.965,1.349,46.448,2.024c3.548,53.269,4.834,106.692,3.812,160.069
	c-1.207,63.135-5.592,126.208-13.149,188.901c-3.746,31.084-8.313,62.067-13.649,92.918c-2.644,15.291-5.422,30.568-8.516,45.774
	c-2.798,13.74-5.961,27.748-11.983,40.489c-16.717,35.368-51.902,52.181-88.722,60.628c6.068-31.349,11.369-62.84,15.91-94.44
	c9.164-63.791,15.263-128.017,18.127-192.414c0.384-8.61-11.511-9.481-14.348-2.708c-0.336,0.803-0.574,1.689-0.619,2.708
	c-4.331,97.404-15.961,194.364-34.843,290.019c-6.84,1.158-13.643,2.07-20.324,2.813c0.913-1.909,1.744-3.9,2.49-5.979
	c5.979-16.695,6.969-35.452,9.219-52.915c10.631-82.496,17.086-165.527,19.345-248.675c0.558-20.581,0.848-41.168,0.901-61.757
	c0.008-2.869-1.329-4.864-3.19-6.025c-4.389-2.737-11.76-0.747-11.777,6.025c-0.211,81.535-4.383,163.046-12.615,244.166
	c-2.079,20.483-4.414,40.94-7.005,61.366c-2.245,17.707-3.152,36.929-9.311,53.837c-5.968,16.384-19.599,23.365-35.549,27.979
	c-18.778,5.432-37.933,9.722-57.114,13.453c-77.322,15.045-156.282,18.566-234.828,21.21c-79.524,2.678-159.064,5.285-238.628,6.345
	c-160.778,2.142-322.433-2.335-481.322-28.876c-16.831-2.812-35.241-4.76-50.358-13.269c-13.096-7.373-21.051-19.913-25.473-34.004
	c-4.831-15.395-6.116-31.535-7.492-47.521c-1.763-20.455-3.384-40.923-4.866-61.401c-5.809-80.274-9.468-160.704-10.978-241.174
	c-3.05-162.582,2.674-325.329,17.163-487.293c1.756-19.632,3.647-39.252,5.655-58.86c0.458-4.471-2.57-6.811-6.021-7.096
	c-1.231-0.102-2.505,0.047-3.707,0.474c-2.642,0.939-4.882,3.141-5.239,6.622c-7.084,69.148-12.498,138.459-16.401,207.858
	c-15.802,2.961-31.604,5.923-47.406,8.884c-14.678,2.751-29.647,4.882-44.117,8.612c-11.527,2.971-23.238,7.935-30.89,17.424
	c-8.832,10.952-10.137,24.969-10.776,38.517c-3.067,65.019-3.642,130.19-2.132,195.26c1.53,65.909,5.335,131.766,11.417,197.412
	c2.876,31.043,5.818,62.184,10.531,93.011c4.32,28.257,10.876,56.226,22.785,82.324c23.037,50.482,72.971,92.886,130.857,87.114
	c4.071,3.476,8.659,6.536,13.933,9.01c16.28,7.636,34.366,10.017,51.938,12.928c19.879,3.292,39.814,6.232,59.788,8.895
	c40.598,5.411,81.359,9.546,122.198,12.628c81.831,6.175,163.925,8.15,245.97,7.937c82.617-0.215,165.207-2.649,247.776-5.302
	c80.173-2.576,160.596-4.477,240.128-15.79c19.972-2.841,39.861-6.299,59.585-10.54c18.195-3.912,37.255-7.605,54.559-14.607
	c7.818-3.164,14.476-7.414,19.967-12.798c0.911,0.34,1.973,0.488,3.199,0.374c47.247-4.442,101.681-15.398,132.878-54.706
	c18.32-23.083,23.885-51.837,29.247-80.093c6.189-32.611,11.496-65.386,15.946-98.278
	C1808.627,1526.999,1812.581,1392.936,1802.154,1259.869z"/>
<path style="fill:#8590C7;" d="M969.712,298.421c44.191-5.875,88.799-8.08,133.363-7.415c45.933,0.684,92.262,3.446,137.368,12.573
	c0.214,0.043,0.425,0.095,0.639,0.138c-1.754-9.278-4.644-18.375-8.491-26.907c-0.708,0.991-1.648,1.823-2.81,2.41
	c-1.641,1.822-4.107,2.912-7.152,2.266c-24.469-5.195-49.158-9.309-74.015-12.123c-86.949-9.845-175.317-5.228-260.729,13.782
	c-2.066,0.459-3.849,0.091-5.306-0.738c-0.972-0.122-1.926-0.413-2.792-0.87c-1.724-0.911-2.763-2.479-3.257-4.219
	c-6.589,13.317-9.934,27.672-10.59,42.449C899.895,310.088,934.659,303.081,969.712,298.421z"/>
<path style="fill:#8590C7;" d="M478.693,956.091c0.325-2.584,0.652-5.166,0.985-7.724c-1.001,0.553-2.185,0.905-3.602,0.905
	c-0.26,0-0.486-0.051-0.732-0.072c-0.121,2.455-0.245,4.907-0.359,7.366C476.188,956.138,477.462,955.989,478.693,956.091z"/>
<path style="fill:#8590C7;" d="M1599.028,747.291c-18.686-102.809-56.077-203.471-113.905-290.814
	c-50.805-76.735-121.589-145.338-212.069-170.96c-0.469-0.133-0.88-0.315-1.282-0.504c-1.307,0.578-2.758,0.825-4.165,0.702
	c2.325,8.406,3.978,16.999,4.811,25.67c50.957,14.555,98.411,38.998,137.301,75.888c48.694,46.191,83.347,105.888,116.588,163.521
	c8.827,15.304-11.979,29.126-23.007,18.714c-2.741,0.54-5.73-0.321-7.624-3.369c-33.193-53.433-70.204-105.958-116.895-148.568
	c-23.551-21.492-50.778-40.563-79.839-52.573c-25.029-10.344-52.175-16.559-78.735-21.435c-35.389-6.496-71.414-8.795-107.339-9.611
	c-35.271-0.802-70.956-1.416-106.145,1.478c-35.504,2.921-70.463,10.215-105.146,18.098c-32.952,7.49-67.295,13.768-97.543,29.465
	c-4.951,2.57-9.549-0.692-10.897-4.749c-3.995,1.818-7.963,3.69-11.915,5.605c0.067,0.185,0.173,0.346,0.227,0.539
	c0.09,0.664,0.179,1.327,0.268,1.99c0.039,1.03-0.177,1.991-0.645,2.883c-0.302,0.928-0.817,1.731-1.548,2.408
	c-0.677,0.73-1.48,1.246-2.408,1.547c-0.892,0.469-1.852,0.684-2.883,0.645h-1.185c-1.35-0.004-2.61-0.345-3.777-1.022
	c-0.505-0.39-1.01-0.78-1.515-1.17c-0.23-0.232-0.389-0.504-0.583-0.756c-5.817,3.035-11.599,6.146-17.309,9.405
	c3.235,3.162,3.968,8.94-1.143,11.703c-69.873,37.762-119.304,102.034-165.285,164.962c-3.602,4.93-10.192,3.636-12.998,0.035
	c-10.795,2.422-23.961-9.363-16.995-22.222c4.452-8.217,9.16-16.288,14.168-24.179c40.845-64.339,98.964-116.647,164.636-154.8
	c32.972-19.156,67.757-34.537,103.662-46.697c-0.394-11.98,0.803-24.188,3.558-36.075c-0.347,0.154-0.743,0.266-1.146,0.372
	c-1.257,0.788-2.743,1.153-4.39,0.971c-47.603,9.147-92.203,29.146-131.738,57.118c-75.29,53.27-129.471,132.168-161.166,218.055
	c-27.707,75.082-39.895,154.443-44.036,234.14c8.299-30.565,18.18-60.688,30.029-90.09c38.39-95.263,97.558-182.307,180.414-244.221
	c40.444-30.222,85.789-52.938,134.247-67.121c57.99-16.974,118.56-26.748,178.576-33.026c5.264-0.55,7.588,3.718,7.059,7.843
	c5.876-0.336,11.814-0.626,17.823-0.862c-0.911-0.927-1.547-2.015-1.899-3.269c-0.089-0.663-0.178-1.327-0.268-1.99
	c0.005-1.351,0.346-2.61,1.022-3.777c0.391-0.505,0.781-1.01,1.17-1.515c0.677-0.73,1.481-1.246,2.408-1.547
	c0.892-0.469,1.854-0.684,2.883-0.645c1.03-0.039,1.991,0.176,2.884,0.645c0.927,0.301,1.73,0.817,2.408,1.547
	c0.593,0.593,1.185,1.186,1.778,1.779c0.927,0.933,1.569,2.035,1.925,3.302c0.089,0.663,0.178,1.326,0.266,1.989
	c-0.002,1.087-0.285,2.098-0.723,3.066c5.522-0.145,11.104-0.244,16.737-0.305c-1-4.178,1.305-9.591,6.914-10.113
	c9.828-0.914,19.682-1.462,29.554-1.566c81.422-0.862,161.432,26.26,229.664,69.776c71.047,45.312,128.69,107.978,172.474,179.667
	c45.161,73.942,75.712,156.158,97.046,239.89C1609.429,817.662,1605.389,782.287,1599.028,747.291z"/>
<path style="fill:#8590C7;" d="M486.217,902.784c-2.904,0.398-6.219-0.984-8.004-3.613c-0.766,11.632-1.47,23.35-2.104,35.137
	c2.262,0.008,3.972,0.855,5.167,2.123C482.849,924.917,484.495,913.692,486.217,902.784z"/>
<path style="fill:#8590C7;" d="M481.246,1885.425c-10.275-15.85-14.565-35.868-16.742-55.084
	c-4.524-39.942-6.81-80.277-9.348-120.385c-5.267-83.192-8.228-166.53-8.884-249.886c-0.652-82.945,0.979-165.909,4.892-248.764
	c0.392-8.312,0.911-16.616,1.351-24.926c-15.412,2.889-30.824,5.777-46.235,8.665c-14.917,2.795-30.385,4.709-44.921,9.182
	c-13.67,4.207-22.61,12.146-25.078,26.653c-2.113,12.415-2.125,25.481-2.299,38.261c12.013-3.61,24.564-5.223,37.076-4.768
	c-1.199-0.667-2.485-1.364-3.951-2.13c-15.045-7.86-29.547,0.691-22.154-24.6c7.399-25.305,64.116-27.297,88.21-31.67
	c-2.724,74.866-0.466,221.083,2.028,342.386c4.256-0.798,8.97,1.522,8.536,7.017c-1.903,24.114-3.116,48.276-3.564,72.461
	c-1.573,84.814,5.993,169.676,22.522,252.875c0.141,0.708,0.163,1.373,0.132,2.016c4.331,0.979,8.866,1.828,13.555,2.572
	C477.986,1885.407,479.617,1885.41,481.246,1885.425z"/>
<path style="fill:#8590C7;" d="M436.068,1811.947c-0.429-3.155-0.756-6.321-1.161-9.479c-1.52,3.325-3.449,5.945-5.984,7.358
	c-52.226,29.118-73.341-256.299-75.543-273.605c-7.335-57.639-11.333-112.027-8.199-169.814
	c1.488-27.435-5.135-62.211,14.044-79.212c3.932-3.485,7.92-5.939,11.364-7.867c-12.48-0.447-24.973,1.47-36.958,5.606
	c-3.76,121.599,0.206,243.437,11.946,364.526c5.32,54.872,8.532,114.365,34.363,164.231c14.087,27.192,38.167,52.569,67.085,64.563
	C442.773,1856.255,439.085,1834.152,436.068,1811.947z"/>
<path style="fill:#8590C7;" d="M1788.752,1281.8c-15.483-0.675-30.966-1.349-46.448-2.024c3.264,1.862,6.94,4.189,10.585,7.419
	c19.179,17.001,12.555,51.778,14.044,79.212c3.134,57.786-0.865,112.174-8.2,169.814c-2.202,17.306-23.318,302.723-75.543,273.605
	c-7.634-4.257-10.112-18.885-10.734-33.688c-4.541,31.601-9.841,63.091-15.91,94.44c36.819-8.447,72.005-25.26,88.722-60.628
	c6.022-12.741,9.185-26.749,11.983-40.489c3.095-15.206,5.872-30.484,8.516-45.774c5.336-30.851,9.903-61.834,13.649-92.918
	c7.557-62.693,11.942-125.766,13.149-188.901C1793.586,1388.492,1792.3,1335.07,1788.752,1281.8z"/>
<path style="fill:#8590C7;" d="M1649.994,1475.614c-0.239,8.58-0.493,17.123-0.782,25.591c1.861,1.161,3.198,3.157,3.19,6.025
	c-0.053,20.589-0.343,41.176-0.901,61.757c-2.259,83.148-8.714,166.18-19.345,248.675c-2.25,17.463-3.24,36.219-9.219,52.915
	c-0.745,2.079-1.576,4.071-2.49,5.979c6.681-0.744,13.484-1.655,20.324-2.813c18.882-95.655,30.512-192.615,34.843-290.019
	c0.045-1.018,0.283-1.905,0.619-2.708c2.725-126.549,5.688-293.315,2.716-375.043c24.093,4.372,80.811,6.365,88.21,31.67
	c7.393,25.29-7.109,16.74-22.154,24.6c-1.726,0.901-3.231,1.719-4.586,2.484c15.754,0.687,31.508,1.374,47.262,2.06
	c-0.353-4.728-0.688-9.456-1.078-14.181c-1.05-12.732-0.568-28.377-8.363-39.229c-7.131-9.927-19.758-14.382-31.006-17.666
	c-28.962-8.455-59.162-11.311-89.213-9.219c4.019,83.752,3.271,167.699-0.412,251.456c-0.193,4.413-3.456,6.778-6.885,7.141
	c-0.105,5.229-0.214,10.451-0.339,15.648C1659.261,1461.413,1659.125,1475.339,1649.994,1475.614z"/>
<path style="fill:#A8B3DC;" d="M1649.735,1460.672c0.232,0,0.43,0.048,0.65,0.064c0.124-5.197,0.234-10.419,0.339-15.648
	c-4.04,0.428-8.311-1.932-8.082-7.141c0.532-12.1,1.011-24.201,1.419-36.306c3.292-97.639,2.261-195.532-6.129-292.905
	c-5.1-59.195-12.832-118.366-24.208-176.78c-0.833-1.132-1.328-2.604-1.278-4.422c0.016-0.56,0.011-1.121,0.026-1.68
	c-6.195-31.073-13.357-61.94-21.827-92.452c-21.195-76.35-50.684-150.864-92.726-218.187c-0.432,0.479-0.918,0.937-1.521,1.34
	c-37.554,25.12-73.477,52.541-107.598,82.159c-7.246,6.29-17.87-4.258-10.582-10.583c35.069-30.443,72.026-58.68,110.626-84.499
	c0.412-0.275,0.82-0.473,1.226-0.655c-0.76-1.156-1.488-2.33-2.255-3.482c-45.412-68.215-104.91-126.518-176.555-166.789
	c-69.391-39.004-148.887-59.765-228.612-52.346c-3.939,0.367-6.218-1.948-6.914-4.854c-5.633,0.061-11.214,0.16-16.737,0.305
	c-0.106,0.235-0.166,0.483-0.297,0.711c-0.391,0.505-0.781,1.01-1.171,1.515c-0.678,0.73-1.481,1.246-2.408,1.547
	c-0.893,0.469-1.853,0.684-2.884,0.645c-1.029,0.039-1.991-0.176-2.883-0.645c-0.927-0.301-1.731-0.817-2.408-1.547
	c-0.593-0.593-1.185-1.185-1.779-1.779c-0.01-0.01-0.016-0.023-0.025-0.033c-6.01,0.236-11.948,0.526-17.823,0.862
	c-0.434,3.387-2.784,6.677-7.059,7.124c-33.455,3.5-66.735,8.448-99.752,14.882c-32.104,6.255-64.25,13.415-95.214,24.07
	c-90.626,31.185-166.632,96.8-220.426,175.118c-2.056,2.993-4.001,6.049-5.995,9.077c36.884,29.898,70.839,63.253,101.336,99.652
	c6.148,7.34-4.391,17.975-10.584,10.583c-29.807-35.578-62.93-68.233-98.852-97.609c-48.607,78.235-77.816,167.074-95.507,257.246
	c0.003,2.06-0.017,4.123-0.007,6.182c0.011,2.297-0.843,4.03-2.13,5.232c-0.545,2.944-1.124,5.885-1.646,8.831
	c-0.592,3.339-2.771,4.972-5.264,5.312c-1.722,10.908-3.368,22.134-4.942,33.647c3.137,3.33,2.596,9.619-1.597,11.936
	c-0.334,2.558-0.66,5.14-0.985,7.724c3.451,0.286,6.479,2.626,6.021,7.096c-2.009,19.608-3.899,39.228-5.655,58.86
	c-14.49,161.964-20.213,324.711-17.163,487.293c1.51,80.47,5.169,160.899,10.978,241.174c1.482,20.478,3.104,40.946,4.866,61.401
	c1.376,15.986,2.661,32.126,7.492,47.521c4.421,14.09,12.376,26.631,25.473,34.004c15.117,8.509,33.526,10.457,50.358,13.269
	c158.889,26.541,320.544,31.019,481.322,28.876c79.564-1.06,159.105-3.667,238.628-6.345c78.545-2.645,157.506-6.165,234.828-21.21
	c19.182-3.732,38.336-8.021,57.114-13.453c15.95-4.614,29.581-11.594,35.549-27.979c6.158-16.908,7.066-36.13,9.311-53.837
	c2.591-20.425,4.926-40.882,7.005-61.366c8.231-81.12,12.404-162.63,12.615-244.166c0.017-6.772,7.388-8.763,11.777-6.025
	c0.289-8.468,0.543-17.012,0.782-25.591c-0.09,0.002-0.168,0.025-0.259,0.025
	C1640.088,1475.639,1640.104,1460.672,1649.735,1460.672z"/>
<path style="fill:#8590C7;" d="M1533.558,1408.869c-0.853-25.198-1.957-50.388-3.224-75.568c-1.045-20.757-1.04-42.328-7.752-62.235
	c-6.77-20.084-21.955-31.727-41.799-37.699c-22.394-6.739-46.18-10.064-69.26-13.518c-98.818-14.79-199.157-14.558-298.833-14.122
	c-102.575,0.448-205.174,0.932-307.692,4.633c-49.621,1.791-99.488,3.552-148.948,8.092c-17.931,1.646-36.902,4.55-52.605,13.921
	c-18.424,10.995-25.016,30.068-27.548,50.445c-6.225,50.087-9.037,100.883-11.997,151.249
	c-3.002,51.089-4.961,102.235-5.923,153.402c-0.078,4.1-2.836,6.438-5.961,7.048c0.09,3.406,0.185,6.807,0.287,10.193
	c0.079,0,0.16,0,0.238,0c1.351,0.004,2.609,0.345,3.777,1.021c0.504,0.39,1.01,0.78,1.514,1.17c0.927,0.934,1.569,2.035,1.924,3.302
	c0.089,0.663,0.178,1.326,0.268,1.99c0.038,1.03-0.177,1.991-0.646,2.883c-0.301,0.927-0.817,1.731-1.547,2.408
	c-0.678,0.73-1.481,1.246-2.408,1.548c-0.814,0.427-1.693,0.616-2.621,0.621c0.198,5.477,0.417,10.907,0.647,16.301
	c2.749,0.881,5.091,3.131,5.382,6.752c1.976,24.511,4.445,48.98,7.458,73.386c3.132,25.368,6.869,50.66,11.164,75.857
	c1.968,11.542,3.458,23.457,6.706,34.726c0.124,0.431,0.289,0.826,0.425,1.247c48.148-51.242,103.848-95.214,164.968-129.992
	c8.392-4.775,15.925,8.161,7.554,12.924c-61.291,34.875-116.81,78.974-164.784,130.634c2.966,3.291,6.523,6.118,10.706,8.513
	c3.686,2.11,7.552,3.796,11.487,5.306c6.815,2.127,14.529,4.172,23.027,6.136c10.664,1.833,21.548,2.733,32.056,3.653
	c25.538,2.236,51.096,4.257,76.667,6.066c102.29,7.237,204.819,11.072,307.363,11.498c100.32,0.417,201.489-0.324,301.355-10.737
	c24.807-2.587,49.532-5.929,74.093-10.287c12.212-2.166,24.38-4.579,36.488-7.265c9.426-2.091,20.821-3.512,29.338-8.761
	c-24.697-24.485-47.353-50.921-67.817-79.042c-2.392-3.286-0.537-8.355,2.685-10.239c3.736-2.185,7.864-0.578,10.239,2.685
	c19.571,26.895,41.389,52.083,64.986,75.518c2.51-4.815,4.038-10.236,5.231-15.432c2.598-11.305,4.241-22.881,6.055-34.331
	c3.894-24.577,7.077-49.259,9.653-74.008C1536.37,1610.517,1536.961,1509.514,1533.558,1408.869z"/>
<path style="fill:#8590C7;" d="M1529.753,1794.761c-1.361,8.342-2.443,17.677-4.452,26.746
	c27.597-82.322,35.977-329.83,20.539-476.537c2.224,46.081,3.89,92.192,4.382,138.326
	C1551.337,1587.431,1546.542,1691.866,1529.753,1794.761z"/>
<path style="fill:#E6E6E6;" d="M1477.658,1282.347c-2.238-6.28-5.971-12.107-12.408-14.618c-7.804-3.044-17.475-1.934-25.676-2.068
	c-140.459-2.302-280.917-4.605-421.375-6.907c-69.814-1.145-139.628-2.289-209.441-3.433c-34.111-0.559-68.258-1.638-102.373-1.583
	c-26.514,0.043-55.971,1.888-77.204,19.719c-2.364,1.986-5.065,2.22-7.402,1.439c-0.947,3.025-1.46,6.242-1.46,9.579v7.522
	c6.979,1.758,6.97,12.685,0,14.445v10.546c4.697-0.101,9.313,3.472,7.145,8.975c-4.102,10.408,5.06,18.957,14.415,21.699
	c11.979,3.51,25.527,2.08,37.85,2.076c27.405-0.01,54.811-0.021,82.217-0.031c98.827-0.037,197.652-0.076,296.479-0.113
	c98.827-0.038,197.653-0.076,296.48-0.113c5.659-0.003,7.966,5.14,6.984,9.398h15.4c0-0.325,0-0.651,0-0.976
	c0.004-1.351,0.345-2.61,1.022-3.777c0.39-0.505,0.78-1.01,1.17-1.515c0.933-0.927,2.035-1.569,3.302-1.924
	c0.662-0.089,1.327-0.179,1.989-0.267c1.03-0.039,1.992,0.176,2.883,0.644c0.928,0.302,1.731,0.818,2.408,1.547
	c0.731,0.678,1.246,1.481,1.548,2.408c0.469,0.892,0.683,1.853,0.645,2.884c0,0.325,0,0.651,0,0.976h12.931
	c-0.267-1.219-0.301-2.46,0.01-3.54c1.222-4.256,5.17-5.77,9.206-5.226c23.569,3.173,60.495,5.214,67.035-24.727
	C1484.36,1312.006,1482.236,1295.198,1477.658,1282.347z"/>
<path style="fill:#999999;" d="M1003.545,1301.704c136.559,0.438,273.119,0.875,409.678,1.313c9.644,0.031,9.632,14.998,0,14.967
	c-38.898-0.125-77.797-0.249-116.696-0.374c-136.559-0.438-273.118-0.875-409.677-1.313c-0.207-0.001-0.384-0.045-0.581-0.059
	c-0.897,3.313-2.168,6.506-3.76,9.504c17.504-0.087,35.01-0.174,52.515-0.261c71.139-0.354,142.278-0.708,213.416-1.062
	c61.267-0.305,122.535-0.61,183.801-0.915c29.678-0.148,59.476,0.471,89.145-0.444l1.22-0.006
	c9.394-0.047,17.386-7.958,17.386-17.386c0-9.392-7.957-17.433-17.386-17.386c-24.527,0.122-49.054,0.244-73.581,0.366
	c-58.671,0.292-117.34,0.584-176.011,0.876c-71.139,0.354-142.278,0.708-213.416,1.062c-24.573,0.123-49.144,0.245-73.717,0.367
	c1.11,3.301,1.711,6.81,1.926,10.38C926.386,1301.458,964.966,1301.581,1003.545,1301.704z"/>
<path style="fill:#999999;" d="M685.433,1326.724c7.866-0.04,15.732-0.078,23.598-0.118c-7.305-9.965-10.765-22.74-8.738-34.927
	c-4.549,0.076-9.099,0.126-13.641,0.266l-1.219,0.006c-9.395,0.047-17.386,7.958-17.386,17.386
	C668.047,1318.729,676.003,1326.77,685.433,1326.724z"/>
<path style="fill:#BABABA;" d="M716.488,1288.719c-6.212,17.514,5.042,37.82,23.674,40.714c11.927,1.852,24.774,0.614,36.819,0.615
	c12.816,0.001,25.633,0.003,38.449,0.005c11.53,0.001,23.359,0.757,34.852-0.289c10.464-0.953,17.826-5.749,21.153-15.968
	c2.47-7.589,2.839-17.544-2.706-23.938c-6.447-7.434-18.721-6.036-27.508-5.955c-25.067,0.233-50.134,0.465-75.201,0.698
	c-6.011,0.055-8.265-5.73-6.786-10.124c-1.525,0.007-3.05,0.015-4.575,0.023c-4.488,0.022-8.977,0.044-13.465,0.067
	c-9.051,0.045-17.913,3.995-24.429,10.272C717.027,1285.987,716.998,1287.279,716.488,1288.719z"/>
<path style="fill:#A8B3DC;" d="M835.91,329.118c-35.905,12.16-70.69,27.541-103.662,46.697
	c-65.672,38.153-123.791,90.461-164.636,154.8c-5.008,7.891-9.716,15.962-14.168,24.179c-6.966,12.859,6.2,24.644,16.995,22.222
	c-1.581-2.029-1.976-4.784,0.074-7.589c47.486-64.989,98.475-131.325,170.654-170.332c3.367-1.82,6.569-0.861,8.697,1.221
	c5.71-3.259,11.492-6.37,17.309-9.405c-0.591-0.764-1.073-1.592-1.341-2.545c-0.089-0.664-0.178-1.327-0.267-1.99
	c-0.039-1.03,0.176-1.991,0.645-2.883c0.302-0.928,0.817-1.731,1.547-2.408c0.679-0.73,1.481-1.246,2.408-1.548
	c0.893-0.469,1.854-0.684,2.884-0.645h1.185c1.35,0.004,2.61,0.345,3.777,1.022c0.504,0.39,1.01,0.78,1.514,1.17
	c0.787,0.792,1.323,1.731,1.698,2.763c3.951-1.915,7.92-3.787,11.915-5.605c-0.978-2.945-0.254-6.308,3.343-8.174
	c34.59-17.951,74.029-24.989,111.745-33.363c40.044-8.892,80.455-16.105,121.526-17.564c36.39-1.293,73.063-0.987,109.431,0.753
	c35.74,1.71,71.463,5.605,106.361,13.675c23.397,5.412,46.338,11.621,68.228,21.698c32.687,15.048,61.559,37.488,87.094,62.63
	c42.156,41.507,76.621,90.599,107.736,140.687c3.197,5.148-0.699,10.015-5.301,10.922c11.028,10.412,31.834-3.41,23.007-18.714
	c-33.241-57.633-67.894-117.33-116.588-163.521c-38.889-36.89-86.343-61.334-137.301-75.888c-0.833-8.671-2.486-17.263-4.811-25.67
	c-2.699-0.238-5.216-1.851-6.125-5.258c-8.547-32.028-32.9-58.441-63.616-70.215c0.24,1.828,0.362,3.705,0.258,5.668
	c-0.28,5.288-1.739,9.781-4.034,13.529c17.324,9.109,35.014,20.854,39.704,41.092c0.538,2.323,0.038,4.544-1.203,6.28
	c3.847,8.532,6.737,17.63,8.491,26.907c-0.213-0.043-0.424-0.095-0.639-0.138c-45.106-9.127-91.435-11.889-137.368-12.573
	c-44.564-0.665-89.171,1.54-133.363,7.415c-35.053,4.66-69.817,11.667-103.773,21.345c0.656-14.777,4-29.131,10.59-42.449
	c-0.559-1.975-0.397-4.179,0.572-6.02c6.552-12.447,15.591-23.632,26.278-32.798c-4.268-4.301-6.902-9.616-7.897-15.117
	c-25.449,12.484-41.517,37.534-52.469,62.987c0.329,2.718-0.722,5.427-3.546,6.674C836.713,304.93,835.516,317.138,835.91,329.118z"
	/>
<path style="fill:#8590C7;" d="M913.225,210.157c-5.801,4.285-3.535,13.458,0.765,17.788c6.306,6.35,15.857,7.467,24.352,7.047
	c10.423-0.515,20.778-3.022,31.068-4.614c10.275-1.589,20.581-2.995,30.909-4.2c37.784-4.409,75.978-5.925,113.948-3.234
	c9.681,0.686,19.34,1.651,28.963,2.897c7.832,1.013,15.756,2.795,23.683,2.75c8.217-0.047,15.325-3.842,16.242-12.683
	c0.705-6.803-3.544-13.15-8.958-16.868c-6.816-4.68-15.826-5.613-23.777-6.816c-8.916-1.349-17.862-2.478-26.83-3.419
	c-19.264-2.024-38.621-3.178-57.989-3.464c-38.08-0.563-76.176,2.24-113.752,8.43c-4.199,0.692-7.314-1.783-8.658-4.877
	c-2.069,0.35-4.141,0.687-6.206,1.063c-0.022,0.885-0.202,1.728-0.611,2.507c-0.302,0.928-0.817,1.731-1.547,2.409
	c-0.678,0.73-1.481,1.246-2.409,1.548c-0.891,0.469-1.852,0.683-2.883,0.645h-1.185c-1.351-0.005-2.61-0.345-3.777-1.022
	c-0.505-0.39-1.01-0.78-1.515-1.17c-0.513-0.517-0.918-1.097-1.257-1.717c-2.865,1.015-5.467,2.666-7.751,4.724
	C916.991,200.98,917.736,206.827,913.225,210.157z"/>
<path style="fill:#9EABD8;" d="M616.613,1652.458c7.169,126.088,95.202,21.574,161.694,4.401
	c115.736-29.891-85.04,136.645-84.752,138.803c5.28,39.366,171.445,35.509,193.351,36.299
	c145.504,5.248,287.231-5.19,431.844-15.195c15.483-1.071,95.905-6.151,104.973-20.476c16.65-26.304-66.921-75.698-3.378-66.083
	c19.442,2.942,23.395,24.788,45.174,9.692c23.485-16.278,20.3-89.117,21.117-113.886c1.726-52.317,15.144-143.583-4.781-193.434
	c-57.008,41.403-115.311,139.406-187.001,154.361c-82.722,17.256,25.636-83.128,42.755-99.817
	c16.799-16.375,73.216-53.788,59.393-82.089c-16.514-33.813-93.768-5.534-119.043-2.863
	c-99.501,10.515-202.516,14.671-302.493,20.171c-89.819,4.942-189.733,16.825-278.413,0.786
	c-11.858-2.144-78.089-21.214-76.737,1.805C606.757,1494.775,612.488,1579.905,616.613,1652.458z"/>
<path style="fill:#A8B3DC;" d="M433.163,1205.973c-24.094,4.372-80.811,6.365-88.21,31.67c-7.393,25.29,7.109,16.74,22.154,24.6
	c1.466,0.766,2.753,1.464,3.951,2.13c9.14,0.332,18.247,1.714,27.078,4.196c9.274,2.606,5.309,17.043-3.979,14.432
	c-7.757-2.18-15.658-3.39-23.569-3.673c-3.444,1.928-7.432,4.381-11.364,7.867c-19.179,17.001-12.555,51.778-14.044,79.212
	c-3.134,57.786,0.865,112.174,8.199,169.814c2.202,17.306,23.318,302.723,75.543,273.605c2.535-1.413,4.464-4.033,5.984-7.358
	c-10.476-81.921-12.649-164.743-6.148-247.092c0.323-4.087,3.25-6.42,6.431-7.017
	C432.697,1427.056,430.439,1280.839,433.163,1205.973z"/>
<path style="fill:#A8B3DC;" d="M1767.159,1237.643c-7.399-25.305-64.117-27.297-88.21-31.67
	c2.972,81.728,0.01,248.494-2.716,375.043c2.837-6.774,14.732-5.902,14.348,2.708c-2.863,64.397-8.962,128.623-18.127,192.414
	c0.623,14.803,3.1,29.432,10.734,33.688c52.226,29.118,73.341-256.299,75.543-273.605c7.335-57.639,11.334-112.027,8.2-169.814
	c-1.488-27.435,5.135-62.211-14.044-79.212c-3.644-3.23-7.32-5.557-10.585-7.419c-1.804-0.078-3.608-0.158-5.412-0.236
	c-4.055-0.177-7.484-3.283-7.484-7.483c0-3.918,3.442-7.66,7.484-7.484c1.175,0.051,2.352,0.103,3.527,0.154
	c1.354-0.764,2.86-1.583,4.586-2.484C1760.05,1254.383,1774.552,1262.933,1767.159,1237.643z"/>
<path style="fill:#BAC6E7;" d="M678.043,1008.351c68.534,20.535-47.686,118.788-52.232,148.398
	c20.428,1.622,44.383-0.208,65.931-2.774c82.261-9.8,164.95-16.835,247.829-16.56c120.551,0.4,242.341-10.699,362.587-0.07
	c26.988,2.386,129,29.522,139.156-10.573c8.065-31.833-43.422-67.909-34.383-98.566c13.263-44.983,70.474,27.319,81.957,40.764
	c17.42,20.395,67.486,104.592,91.185,48.49c21.638-51.225-9.279-139.253-18.61-190.008c-12.213-66.424-32.712-128.43-50.636-193.037
	c-5.762-20.772-8.52-53.574-35-59.653c-21.942-5.037-54.01,18.42-73.161,30.099c-29.348,17.897-83.669,47.915-43.466-14.683
	c16.269-25.334,43.09-41.174,59.984-64.684c37.664-52.414-54.251-121.261-89.75-148.36
	c-91.636-69.954-219.532-67.732-328.927-61.494c-79.738,4.547-174.69,30.142-239.972,77.814
	c-28.485,20.8-62.948,54.596-83.072,83.826c-18.135,26.339-9.127,57.431,0.847,85.566c10.138,28.597,43.208,46.294,48.073,75.366
	c8.125,48.568-40.849,15.204-59.381,2.124c-15.619-11.024-29.887-27.868-46.988-36.811c-33.292-17.41-39.113,16.393-51.795,44.956
	c-18.027,34.068-17.508,76.44-18.695,124.343c-1.137,45.825-1.864,91.549-4.033,137.343c-1.142,24.117-16.89,70.446-4.853,90.054
	C581.602,1090.31,635.128,995.492,678.043,1008.351z"/>
<path style="fill:#321C27;" d="M1650.385,1460.736c-0.22-0.016-0.418-0.064-0.65-0.064c-9.631,0-9.647,14.967,0,14.967
	c0.091,0,0.169-0.023,0.259-0.025C1659.125,1475.339,1659.261,1461.413,1650.385,1460.736z"/>
<path style="fill:#321C27;" d="M1059.453,370.753c-0.356-1.268-0.998-2.369-1.925-3.302c-0.593-0.593-1.185-1.186-1.778-1.779
	c-0.679-0.73-1.481-1.246-2.408-1.547c-0.893-0.469-1.854-0.684-2.884-0.645c-1.029-0.039-1.992,0.176-2.883,0.645
	c-0.927,0.301-1.731,0.817-2.408,1.547c-0.39,0.505-0.779,1.01-1.17,1.515c-0.676,1.167-1.017,2.426-1.022,3.777
	c0.09,0.663,0.179,1.326,0.268,1.99c0.352,1.254,0.988,2.341,1.899,3.269c0.01,0.01,0.016,0.023,0.025,0.033
	c0.593,0.593,1.185,1.186,1.779,1.779c0.677,0.73,1.481,1.246,2.408,1.547c0.892,0.469,1.854,0.684,2.883,0.645
	c1.031,0.039,1.992-0.176,2.884-0.645c0.927-0.301,1.73-0.817,2.408-1.547c0.39-0.505,0.78-1.01,1.171-1.515
	c0.132-0.228,0.191-0.476,0.297-0.711c0.438-0.968,0.721-1.979,0.723-3.066C1059.631,372.079,1059.542,371.416,1059.453,370.753z"/>
<path style="fill:#321C27;" d="M479.679,948.367c4.193-2.316,4.734-8.606,1.597-11.936c-1.195-1.269-2.905-2.115-5.167-2.123
	c-0.011,0-0.021-0.003-0.032-0.003c-9.37,0-9.61,14.129-0.732,14.895c0.246,0.021,0.471,0.072,0.732,0.072
	C477.494,949.271,478.678,948.92,479.679,948.367z"/>
<path style="fill:#321C27;" d="M557.835,1617.487c0.729-0.677,1.246-1.481,1.547-2.408c0.469-0.892,0.683-1.853,0.646-2.883
	c-0.09-0.663-0.179-1.327-0.268-1.99c-0.356-1.268-0.997-2.368-1.924-3.302c-0.504-0.39-1.01-0.78-1.514-1.17
	c-1.168-0.677-2.426-1.017-3.777-1.021c-0.079,0-0.16,0-0.238,0c-0.514,0-1.027,0-1.54,0c-1.031-0.039-1.992,0.176-2.884,0.645
	c-0.927,0.302-1.73,0.818-2.408,1.547c-0.73,0.678-1.245,1.481-1.547,2.408c-0.469,0.892-0.683,1.853-0.644,2.884
	c0.089,0.663,0.178,1.326,0.266,1.989c0.356,1.268,0.998,2.368,1.925,3.302c0.505,0.39,1.01,0.78,1.515,1.17
	c1.167,0.677,2.426,1.017,3.777,1.022c0.592,0,1.185,0,1.778,0c0.09,0.003,0.173-0.023,0.262-0.023
	c0.928-0.005,1.807-0.194,2.621-0.621C556.354,1618.732,557.157,1618.217,557.835,1617.487z"/>
<path style="fill:#321C27;" d="M709.031,1326.606c3.514,4.793,7.888,8.954,13.001,12.052c2.234,1.354,4.567,2.349,6.94,3.192
	c0.72,0.255,1.426,0.56,2.157,0.775c0.096,0.029,0.196,0.049,0.293,0.077c1.145,0.33,2.308,0.583,3.474,0.827
	c8.424,1.76,17.343,1.483,25.96,1.484c15.71,0.003,31.421,0.004,47.131,0.006c14.318,0.002,29.033,0.986,43.296-0.383
	c12.646-1.213,23.828-6.043,30.444-17.39c0.284-0.486,0.516-1.005,0.782-1.504c1.592-2.997,2.864-6.19,3.76-9.504
	c0.197,0.014,0.374,0.059,0.581,0.059c136.559,0.438,273.118,0.875,409.677,1.313c38.899,0.125,77.798,0.249,116.696,0.374
	c9.632,0.031,9.644-14.936,0-14.967c-136.559-0.438-273.119-0.875-409.678-1.313c-38.58-0.123-77.159-0.247-115.738-0.371
	c-0.214-3.57-0.816-7.08-1.926-10.38c-3.013-8.961-9.419-16.445-19.71-19.815c-14.157-4.636-31.28-2.145-45.907-2.009
	c-18.082,0.168-36.163,0.336-54.244,0.504c-3.63,0.033-5.89,2.184-6.786,4.843c-1.48,4.394,0.775,10.18,6.786,10.124
	c25.067-0.233,50.134-0.465,75.201-0.698c8.787-0.081,21.061-1.479,27.508,5.955c5.545,6.394,5.176,16.35,2.706,23.938
	c-3.327,10.219-10.689,15.016-21.153,15.968c-11.493,1.046-23.323,0.291-34.852,0.289c-12.816-0.002-25.633-0.004-38.449-0.005
	c-12.044-0.001-24.892,1.237-36.819-0.615c-18.632-2.894-29.887-23.199-23.674-40.714c0.51-1.44,0.539-2.732,0.279-3.881
	c-1.388-6.11-12.016-7.697-14.712-0.097c-0.806,2.273-1.374,4.596-1.762,6.939C698.266,1303.866,701.726,1316.641,709.031,1326.606z
	"/>
<path style="fill:#321C27;" d="M1550.223,1483.297c-0.492-46.134-2.158-92.245-4.382-138.326c-0.286-5.919-0.546-11.839-0.85-17.756
	c-1.09-21.227-1.48-43.549-9.244-63.633c-3.389-8.765-8.128-16.265-13.98-22.662c-2.378-2.599-4.891-5.066-7.654-7.279
	c-5.85-4.685-12.539-8.516-20.023-11.488c-21.677-8.607-46.142-11.604-69.035-15.259c-25.313-4.042-50.782-7.133-76.309-9.451
	c-51.473-4.674-103.171-6.235-154.835-6.664c-106.02-0.881-212.192,0.07-318.187,2.535c-52.944,1.231-105.877,3.127-158.752,6.128
	c-23.875,1.355-47.999,2.168-71.731,5.227c-18.585,2.396-38.042,6.545-53.625,17.553c-18.038,12.743-26.539,31.944-29.709,53.339
	c-3.711,25.033-5.173,50.542-7.206,75.756c-4.244,52.656-7.396,105.399-9.451,158.186c-1.012,25.981-1.75,51.972-2.239,77.968
	c-0.105,5.535,4.786,7.873,9.006,7.048c3.125-0.61,5.883-2.949,5.961-7.048c0.962-51.167,2.921-102.314,5.923-153.402
	c2.96-50.366,5.771-101.162,11.997-151.249c2.532-20.377,9.124-39.45,27.548-50.445c15.703-9.371,34.675-12.275,52.605-13.921
	c49.459-4.54,99.326-6.301,148.948-8.092c102.519-3.701,205.117-4.185,307.692-4.633c99.676-0.437,200.014-0.668,298.833,14.122
	c23.079,3.454,46.866,6.78,69.26,13.518c19.844,5.972,35.029,17.615,41.799,37.699c6.712,19.906,6.707,41.478,7.752,62.235
	c1.267,25.181,2.371,50.37,3.224,75.568c3.403,100.644,2.811,201.648-7.62,301.894c-2.576,24.749-5.759,49.431-9.653,74.008
	c-1.813,11.45-3.456,23.026-6.055,34.331c-1.193,5.196-2.722,10.617-5.231,15.432c-23.597-23.436-45.415-48.624-64.986-75.518
	c-2.375-3.263-6.503-4.87-10.239-2.685c-3.221,1.884-5.077,6.953-2.685,10.239c20.464,28.122,43.121,54.557,67.817,79.042
	c-8.516,5.249-19.911,6.67-29.338,8.761c-12.108,2.686-24.277,5.098-36.488,7.265c-24.561,4.357-49.285,7.7-74.093,10.287
	c-99.866,10.413-201.035,11.154-301.355,10.737c-102.544-0.426-205.073-4.261-307.363-11.498c-25.571-1.81-51.129-3.83-76.667-6.066
	c-10.508-0.92-21.392-1.82-32.056-3.653c-7.893-1.357-15.632-3.3-23.027-6.136c-3.935-1.51-7.801-3.196-11.487-5.306
	c-4.184-2.395-7.74-5.223-10.706-8.513c47.975-51.66,103.493-95.759,164.784-130.634c8.371-4.763,0.838-17.699-7.554-12.924
	c-61.121,34.778-116.821,78.749-164.968,129.992c-0.136-0.421-0.301-0.816-0.425-1.247c-3.248-11.268-4.738-23.184-6.706-34.726
	c-4.295-25.197-8.033-50.489-11.164-75.857c-3.013-24.406-5.482-48.875-7.458-73.386c-0.291-3.621-2.633-5.871-5.382-6.752
	c-4.489-1.439-10.066,0.786-9.585,6.752c4.235,52.547,10.812,104.906,19.782,156.857c1.999,11.579,3.317,23.842,7.32,34.948
	c3.681,10.208,9.961,18.28,18.71,24.652c18.584,13.535,42.938,17.212,65.222,19.532c105.097,10.943,211.265,15.562,316.869,17.867
	c105.262,2.297,210.975,2.015,316.104-4.269c51.41-3.073,102.792-8.261,153.448-17.73c12.588-2.353,25.127-4.973,37.595-7.898
	c10.783-2.53,21.704-5.435,30.156-13.002c9.115-8.163,13.519-19.918,16.228-32.158c2.009-9.069,3.09-18.404,4.452-26.746
	C1546.542,1691.866,1551.337,1587.431,1550.223,1483.297z"/>
<path style="fill:#321C27;" d="M618.339,1306.703c0.72,0,1.368-0.107,1.981-0.261c6.97-1.761,6.979-12.687,0-14.445
	c-0.613-0.155-1.261-0.26-1.981-0.26C608.708,1291.736,608.692,1306.703,618.339,1306.703z"/>
<path style="fill:#321C27;" d="M1354.906,1349.48c-98.827,0.037-197.652,0.075-296.48,0.113
	c-98.827,0.037-197.653,0.076-296.479,0.113c-27.406,0.01-54.811,0.021-82.217,0.031c-12.323,0.004-25.871,1.434-37.85-2.076
	c-9.355-2.741-18.518-11.291-14.415-21.699c2.168-5.503-2.448-9.077-7.145-8.975c-2.954,0.064-5.938,1.571-7.287,4.996
	c-7.832,19.87,10.823,37.473,28.882,41.077c11.575,2.31,23.594,1.649,35.324,1.645c12.458-0.005,24.915-0.009,37.371-0.014
	c51.905-0.02,103.81-0.039,155.715-0.059c103.393-0.039,206.788-0.079,310.182-0.119c58.133-0.022,116.266-0.044,174.399-0.066
	c3.981-0.002,6.292-2.568,6.984-5.569C1362.871,1354.62,1360.565,1349.478,1354.906,1349.48z"/>
<path style="fill:#321C27;" d="M1391.612,1355.019c-0.302-0.927-0.817-1.73-1.548-2.408c-0.677-0.73-1.48-1.246-2.408-1.547
	c-0.892-0.468-1.853-0.683-2.883-0.644c-0.662,0.089-1.327,0.178-1.989,0.267c-1.268,0.355-2.369,0.997-3.302,1.924
	c-0.391,0.505-0.781,1.01-1.17,1.515c-0.677,1.167-1.018,2.426-1.022,3.777c0,0.325,0,0.651,0,0.976c0,0.267,0,0.535,0,0.802
	c-0.039,1.03,0.175,1.991,0.644,2.883c0.302,0.928,0.818,1.731,1.548,2.408c0.678,0.73,1.48,1.246,2.408,1.548
	c0.892,0.469,1.852,0.683,2.883,0.645c0.663-0.089,1.327-0.178,1.989-0.267c1.268-0.355,2.369-0.997,3.302-1.925
	c0.391-0.505,0.781-1.01,1.171-1.514c0.677-1.167,1.018-2.426,1.022-3.777c0-0.267,0-0.535,0-0.802c0-0.325,0-0.651,0-0.976
	C1392.295,1356.872,1392.081,1355.911,1391.612,1355.019z"/>
<path style="fill:#321C27;" d="M1489.384,1271.769c-6.619-13.767-19.028-19.892-33.84-20.734
	c-17.724-1.007-35.622-0.665-53.371-0.955c-38.231-0.627-76.463-1.253-114.693-1.88c-150.432-2.466-300.864-4.932-451.296-7.397
	c-41.635-0.683-83.282-1.717-124.923-2.018c-32.502-0.235-66.742,2.319-92.664,24.088c-5.003,4.202-1.728,10.381,3.182,12.022
	c2.336,0.781,5.038,0.547,7.402-1.439c21.233-17.831,50.69-19.676,77.204-19.719c34.115-0.056,68.263,1.024,102.373,1.583
	c69.813,1.145,139.628,2.289,209.441,3.433c140.458,2.302,280.915,4.604,421.375,6.907c8.201,0.134,17.872-0.975,25.676,2.068
	c6.437,2.511,10.171,8.338,12.408,14.618c4.578,12.851,6.702,29.659,3.78,43.039c-6.54,29.941-43.466,27.9-67.035,24.727
	c-4.037-0.544-7.984,0.97-9.206,5.226c-0.31,1.08-0.276,2.321-0.01,3.54c0.596,2.708,2.478,5.294,5.236,5.666
	c13.136,1.768,28.085,3.261,42.045,1.274c-16.739,41.18-40.248,79.508-69.47,113.015c-6.307,7.231,4.237,17.859,10.582,10.583
	c32.946-37.776,58.787-80.921,76.63-127.754c0.13-0.344,0.189-0.665,0.269-0.993c4.843-2.257,9.367-5.219,13.361-9.166
	c10.13-10.012,13.688-24.051,13.598-37.932C1497.347,1299.746,1495.433,1284.35,1489.384,1271.769z"/>
<path style="fill:#321C27;" d="M1435.953,1065.923c32.842,43.084,60.408,89.95,82.105,139.59c3.848,8.805,16.747,1.194,12.923-7.554
	c-21.697-49.639-49.262-96.505-82.105-139.59C1443.114,1050.81,1430.109,1058.257,1435.953,1065.923z"/>
<path style="fill:#321C27;" d="M658.255,1049.176c7.156-6.479-3.455-17.037-10.583-10.583
	c-48.773,44.16-90.765,95.569-124.388,152.121c-4.934,8.299,8,15.836,12.924,7.554
	C569.221,1142.742,610.368,1092.533,658.255,1049.176z"/>
<path style="fill:#321C27;" d="M924.574,196.042c1.167,0.677,2.426,1.018,3.777,1.022h1.185c1.031,0.038,1.992-0.176,2.883-0.645
	c0.928-0.302,1.731-0.818,2.409-1.548c0.73-0.677,1.245-1.481,1.547-2.409c0.409-0.779,0.589-1.621,0.611-2.507
	c0.003-0.128,0.038-0.246,0.033-0.376c-0.089-0.664-0.178-1.327-0.266-1.99c-0.356-1.268-0.998-2.369-1.925-3.302
	c-0.505-0.39-1.01-0.78-1.515-1.17c-1.167-0.676-2.426-1.017-3.777-1.021h-1.185c-1.031-0.039-1.992,0.176-2.883,0.644
	c-0.928,0.302-1.731,0.818-2.409,1.548c-0.729,0.678-1.245,1.48-1.547,2.408c-0.469,0.892-0.683,1.853-0.644,2.884
	c0.089,0.662,0.178,1.326,0.266,1.989c0.159,0.566,0.396,1.086,0.668,1.586c0.339,0.62,0.744,1.2,1.257,1.717
	C923.564,195.262,924.068,195.652,924.574,196.042z"/>
<path style="fill:#321C27;" d="M1508.601,558.584c-31.115-50.087-65.58-99.18-107.736-140.687
	c-25.535-25.142-54.407-47.581-87.094-62.63c-21.89-10.077-44.831-16.287-68.228-21.698c-34.898-8.071-70.621-11.966-106.361-13.675
	c-36.367-1.74-73.041-2.046-109.431-0.753c-41.072,1.459-81.482,8.672-121.526,17.564c-37.716,8.374-77.154,15.412-111.745,33.363
	c-3.597,1.866-4.32,5.229-3.343,8.174c1.348,4.057,5.945,7.319,10.897,4.749c30.247-15.697,64.591-21.975,97.543-29.465
	c34.683-7.883,69.642-15.177,105.146-18.098c35.189-2.895,70.873-2.28,106.145-1.478c35.925,0.817,71.95,3.116,107.339,9.611
	c26.56,4.876,53.706,11.091,78.735,21.435c29.061,12.01,56.289,31.081,79.839,52.573c46.691,42.61,83.703,95.135,116.895,148.568
	c1.894,3.048,4.883,3.909,7.624,3.369C1507.902,568.599,1511.798,563.732,1508.601,558.584z"/>
<path style="fill:#321C27;" d="M778.011,379.914c-1.166-0.677-2.426-1.018-3.777-1.022h-1.185c-1.03-0.039-1.992,0.176-2.884,0.645
	c-0.927,0.302-1.73,0.818-2.408,1.548c-0.729,0.677-1.245,1.48-1.547,2.408c-0.469,0.892-0.684,1.853-0.645,2.883
	c0.089,0.663,0.178,1.326,0.267,1.99c0.268,0.953,0.75,1.781,1.341,2.545c0.195,0.252,0.353,0.525,0.583,0.756
	c0.505,0.39,1.01,0.78,1.515,1.17c1.167,0.677,2.427,1.018,3.777,1.022h1.185c1.03,0.039,1.991-0.176,2.883-0.645
	c0.928-0.302,1.731-0.818,2.408-1.547c0.731-0.678,1.246-1.48,1.548-2.408c0.468-0.892,0.683-1.853,0.645-2.883
	c-0.089-0.663-0.178-1.326-0.268-1.99c-0.054-0.193-0.16-0.354-0.227-0.539c-0.375-1.032-0.911-1.971-1.698-2.763
	C779.021,380.694,778.515,380.304,778.011,379.914z"/>
<path style="fill:#321C27;" d="M741.167,399.095c-72.179,39.007-123.168,105.342-170.654,170.332
	c-2.05,2.806-1.655,5.56-0.074,7.589c2.806,3.602,9.396,4.895,12.998-0.035c45.98-62.929,95.411-127.201,165.285-164.962
	c5.111-2.762,4.377-8.541,1.143-11.703C747.736,398.234,744.534,397.275,741.167,399.095z"/>
</svg>
